<svg xmlns="http://www.w3.org/2000/svg">
  <symbol id="lucide-bike" viewBox="0 0 24 24"><g fill="none" stroke="currentColor" stroke-linecap="round" stroke-linejoin="round" stroke-width="2"><circle cx="18.5" cy="17.5" r="3.5"/><circle cx="5.5" cy="17.5" r="3.5"/><circle cx="15" cy="5" r="1"/><path d="M12 17.5V14l-3-3l4-3l2 3h2"/></g></symbol>
  <symbol id="tabler-calendar" viewBox="0 0 24 24"><path fill="none" stroke="currentColor" stroke-linecap="round" stroke-linejoin="round" stroke-width="2" d="M4 7a2 2 0 0 1 2-2h12a2 2 0 0 1 2 2v12a2 2 0 0 1-2 2H6a2 2 0 0 1-2-2zm12-4v4M8 3v4m-4 4h16m-9 4h1m0 0v3"/></symbol>
  <symbol id="tabler-leaf" viewBox="0 0 24 24"><g fill="none" stroke="currentColor" stroke-linecap="round" stroke-linejoin="round" stroke-width="2"><path d="M5 21c.5-4.5 2.5-8 7-10"/><path d="M9 18c6.218 0 10.5-3.288 11-12V4h-4.014c-9 0-11.986 4-12 9c0 1 0 3 2 5h3z"/></g></symbol>
</svg>
