<svg xmlns="http://www.w3.org/2000/svg">
  <symbol id="route-bg-towork-active" viewBox="0 0 135 38">
    <path
      fill-rule="evenodd"
      d="M8.857 0a8 8 0 0 0-8 8v22a8 8 0 0 0 8 8h99.2l26.8-19-26.8-19h-99.2Z"
      clip-rule="evenodd"
    />
  </symbol>
  <symbol id="route-bg-towork-logged" viewBox="0 0 135 38">
    <path
      fill-rule="evenodd"
      d="M8.857 0a8 8 0 0 0-8 8v22a8 8 0 0 0 8 8h99.2l26.8-19-26.8-19h-99.2Z"
      clip-rule="evenodd"
    />
  </symbol>
  <symbol id="route-bg-towork-empty"  viewBox="-1 0 138 40">
    <path
      fill="currentColor"
      d="M108 38v.5h.158l.13-.091L108 38Zm27-19 .288.409.581-.409-.581-.409L135 19ZM108 0l.288-.409-.13-.091H108V0ZM-.5 8v.917h1V8h-1Zm0 2.75v1.833h1V10.75h-1Zm0 3.667v1.833h1v-1.833h-1Zm0 3.666v1.834h1v-1.834h-1Zm0 3.667v1.833h1V21.75h-1Zm0 3.667v1.833h1v-1.833h-1Zm0 3.666V30h1v-.917h-1Zm0 .917c0 .376.024.746.072 1.11l.991-.13A7.575 7.575 0 0 1 .5 30h-1Zm.645 3.254a8.49 8.49 0 0 0 1.111 1.92l.793-.608a7.491 7.491 0 0 1-.98-1.695l-.924.383Zm2.68 3.49c.585.449 1.23.824 1.921 1.11l.383-.923a7.487 7.487 0 0 1-1.695-.98l-.609.793Zm4.065 1.684c.364.048.734.072 1.11.072v-1c-.332 0-.66-.022-.98-.063l-.13.991ZM8 38.5h1v-1H8v1Zm3 0h2v-1h-2v1Zm4 0h2v-1h-2v1Zm4 0h2v-1h-2v1Zm4 0h2v-1h-2v1Zm4 0h2v-1h-2v1Zm4 0h2v-1h-2v1Zm4 0h2v-1h-2v1Zm4 0h2v-1h-2v1Zm4 0h2v-1h-2v1Zm4 0h2v-1h-2v1Zm4 0h2v-1h-2v1Zm4 0h2v-1h-2v1Zm4 0h2v-1h-2v1Zm4 0h2v-1h-2v1Zm4 0h2v-1h-2v1Zm4 0h2v-1h-2v1Zm4 0h2v-1h-2v1Zm4 0h2v-1h-2v1Zm4 0h2v-1h-2v1Zm4 0h2v-1h-2v1Zm4 0h2v-1h-2v1Zm4 0h2v-1h-2v1Zm4 0h2v-1h-2v1Zm4 0h2v-1h-2v1Zm4 0h1v-1h-1v1Zm1.288-.091.844-.594-.576-.818-.844.594.576.818Zm2.531-1.781 1.688-1.188-.576-.818-1.688 1.188.576.818Zm3.375-2.375 1.688-1.188-.576-.818-1.687 1.188.575.818Zm3.375-2.375 1.688-1.188-.576-.818-1.687 1.188.575.818Zm3.375-2.375 1.688-1.188-.576-.818-1.687 1.188.575.818Zm3.375-2.375 1.688-1.188-.576-.818-1.688 1.188.576.818Zm3.375-2.375 1.688-1.188-.576-.818-1.688 1.188.576.818Zm3.375-2.375 1.688-1.188-.576-.818-1.688 1.188.576.818Zm3.375-2.375.844-.594-.576-.818-.844.594.576.818Zm.844-1.412-.844-.594-.576.818.844.594.576-.818Zm-2.531-1.781-1.688-1.188-.576.818 1.688 1.188.576-.818Zm-3.375-2.375-1.688-1.188-.576.818 1.688 1.188.576-.818Zm-3.376-2.375-1.687-1.188-.576.818 1.688 1.188.575-.818Zm-3.375-2.375-1.687-1.188-.576.818 1.688 1.188.575-.818Zm-3.374-2.375-1.688-1.188-.576.818 1.688 1.188.576-.818Zm-3.375-2.375-1.688-1.188-.575.818 1.687 1.188.576-.818Zm-3.375-2.375-1.688-1.188-.575.818 1.687 1.188.576-.818ZM109.132.185l-.844-.594-.576.818.844.594.576-.818ZM108-.5h-1v1h1v-1Zm-3 0h-2v1h2v-1Zm-4 0h-2v1h2v-1Zm-4 0h-2v1h2v-1Zm-4 0h-2v1h2v-1Zm-4 0h-2v1h2v-1Zm-4 0h-2v1h2v-1Zm-4 0h-2v1h2v-1Zm-4 0h-2v1h2v-1Zm-4 0h-2v1h2v-1Zm-4 0h-2v1h2v-1Zm-4 0h-2v1h2v-1Zm-4 0h-2v1h2v-1Zm-4 0h-2v1h2v-1Zm-4 0h-2v1h2v-1Zm-4 0h-2v1h2v-1Zm-4 0h-2v1h2v-1Zm-4 0h-2v1h2v-1Zm-4 0h-2v1h2v-1Zm-4 0h-2v1h2v-1Zm-4 0h-2v1h2v-1Zm-4 0h-2v1h2v-1Zm-4 0h-2v1h2v-1Zm-4 0h-2v1h2v-1Zm-4 0h-2v1h2v-1Zm-4 0H8v1h1v-1Zm-1 0c-.376 0-.746.024-1.11.072l.13.991C7.34.522 7.668.5 8 .5v-1ZM4.746.145a8.492 8.492 0 0 0-1.92 1.111l.608.793a7.492 7.492 0 0 1 1.695-.98L4.746.145Zm-3.49 2.68a8.492 8.492 0 0 0-1.11 1.921l.923.383c.253-.61.584-1.178.98-1.695l-.793-.609ZM-.428 6.89A8.576 8.576 0 0 0-.5 8h1c0-.332.022-.66.063-.98l-.991-.13ZM108 38v1h.317l.258-.182L108 38Zm27-19 .576.818 1.162-.818-1.162-.818L135 19ZM108 0l.575-.818-.258-.182H108v1ZM-1 8v.917h2V8h-2Zm0 2.75v1.833h2V10.75h-2Zm0 3.667v1.833h2v-1.833h-2Zm0 3.666v1.834h2v-1.834h-2Zm0 3.667v1.833h2V21.75h-2Zm0 3.667v1.833h2v-1.833h-2Zm0 3.666V30h2v-.917h-2ZM-1 30c0 .398.026.79.076 1.174l1.983-.258C1.02 30.616 1 30.31 1 30h-2Zm.683 3.445c.304.733.701 1.416 1.177 2.035l1.586-1.22a6.99 6.99 0 0 1-.915-1.58l-1.848.765ZM2.52 37.14a8.993 8.993 0 0 0 2.035 1.177l.766-1.848a6.989 6.989 0 0 1-1.582-.915L2.52 37.14Zm4.306 1.784c.385.05.777.076 1.174.076v-2c-.31 0-.616-.02-.916-.06l-.258 1.984ZM8 39h1v-2H8v2Zm3 0h2v-2h-2v2Zm4 0h2v-2h-2v2Zm4 0h2v-2h-2v2Zm4 0h2v-2h-2v2Zm4 0h2v-2h-2v2Zm4 0h2v-2h-2v2Zm4 0h2v-2h-2v2Zm4 0h2v-2h-2v2Zm4 0h2v-2h-2v2Zm4 0h2v-2h-2v2Zm4 0h2v-2h-2v2Zm4 0h2v-2h-2v2Zm4 0h2v-2h-2v2Zm4 0h2v-2h-2v2Zm4 0h2v-2h-2v2Zm4 0h2v-2h-2v2Zm4 0h2v-2h-2v2Zm4 0h2v-2h-2v2Zm4 0h2v-2h-2v2Zm4 0h2v-2h-2v2Zm4 0h2v-2h-2v2Zm4 0h2v-2h-2v2Zm4 0h2v-2h-2v2Zm4 0h2v-2h-2v2Zm4 0h1v-2h-1v2Zm1.575-.182.844-.594-1.151-1.636-.843.594 1.15 1.636Zm2.532-1.781 1.687-1.188-1.151-1.636-1.687 1.188 1.151 1.636Zm3.375-2.375 1.687-1.188-1.151-1.636-1.687 1.188 1.151 1.636Zm3.375-2.375 1.687-1.188-1.151-1.636-1.687 1.188 1.151 1.636Zm3.375-2.375 1.687-1.188-1.151-1.636-1.687 1.188 1.151 1.636Zm3.375-2.375 1.687-1.188-1.151-1.636-1.687 1.188 1.151 1.636Zm3.375-2.375 1.687-1.188-1.151-1.636-1.687 1.188 1.151 1.636Zm3.375-2.375 1.687-1.188-1.151-1.636-1.687 1.188 1.151 1.636Zm3.375-2.375.844-.594-1.152-1.636-.843.594 1.151 1.636Zm.844-2.23-.844-.594-1.151 1.636.843.594 1.152-1.636Zm-2.532-1.781-1.687-1.188-1.151 1.636 1.687 1.188 1.151-1.636Zm-3.375-2.375-1.687-1.188-1.151 1.636 1.687 1.188 1.151-1.636Zm-3.375-2.375-1.687-1.188-1.151 1.636 1.687 1.188 1.151-1.636Zm-3.375-2.375-1.687-1.188-1.151 1.636 1.687 1.188 1.151-1.636ZM119.544 6.9l-1.687-1.188-1.151 1.636 1.687 1.188 1.151-1.636Zm-3.375-2.375-1.687-1.188-1.151 1.636 1.687 1.188 1.151-1.636Zm-3.375-2.375L111.107.963 109.956 2.6l1.687 1.188 1.151-1.636Zm-3.375-2.375-.844-.594-1.15 1.636.843.594 1.151-1.636ZM108-1h-1v2h1v-2Zm-3 0h-2v2h2v-2Zm-4 0h-2v2h2v-2Zm-4 0h-2v2h2v-2Zm-4 0h-2v2h2v-2Zm-4 0h-2v2h2v-2Zm-4 0h-2v2h2v-2Zm-4 0h-2v2h2v-2Zm-4 0h-2v2h2v-2Zm-4 0h-2v2h2v-2Zm-4 0h-2v2h2v-2Zm-4 0h-2v2h2v-2Zm-4 0h-2v2h2v-2Zm-4 0h-2v2h2v-2Zm-4 0h-2v2h2v-2Zm-4 0h-2v2h2v-2Zm-4 0h-2v2h2v-2Zm-4 0h-2v2h2v-2Zm-4 0h-2v2h2v-2Zm-4 0h-2v2h2v-2Zm-4 0h-2v2h2v-2Zm-4 0h-2v2h2v-2Zm-4 0h-2v2h2v-2Zm-4 0h-2v2h2v-2Zm-4 0h-2v2h2v-2ZM9-1H8v2h1v-2ZM8-1c-.397 0-.79.026-1.174.076l.258 1.983C7.384 1.02 7.69 1 8 1v-2Zm-3.445.683C3.822-.013 3.139.384 2.52.86l1.22 1.586a6.992 6.992 0 0 1 1.58-.915L4.556-.317ZM.86 2.52A8.992 8.992 0 0 0-.317 4.555l1.848.766c.236-.569.544-1.1.915-1.582L.86 2.52ZM-.924 6.826C-.974 7.21-1 7.603-1 8h2c0-.31.02-.616.06-.916l-1.984-.258Z"
    />
  </symbol>
  <symbol id="route-bg-fromwork-active" viewBox="0 0 135 38">
    <path
      fill-rule="evenodd"
      d="M126.857 0a8 8 0 0 1 8 8v22a8 8 0 0 1-8 8h-99.2L.857 19l26.8-19h99.2Z"
      clip-rule="evenodd"
    />
  </symbol>
  <symbol id="route-bg-fromwork-logged" viewBox="0 0 135 38">
    <path
      fill-rule="evenodd"
      d="M126.857 0a8 8 0 0 1 8 8v22a8 8 0 0 1-8 8h-99.2L.857 19l26.8-19h99.2Z"
      clip-rule="evenodd"
    />
  </symbol>
  <symbol id="route-bg-fromwork-empty" viewBox="-1 0 138 40">
    <path
      fill="currentColor"
      d="M27 38v.5h-.158l-.13-.091L27 38ZM0 19l-.288.409-.58-.409.58-.409L0 19ZM27 0l-.288-.409.13-.091H27V0Zm108.5 8v.917h-1V8h1Zm0 2.75v1.833h-1V10.75h1Zm0 3.667v1.833h-1v-1.833h1Zm0 3.666v1.834h-1v-1.834h1Zm0 3.667v1.833h-1V21.75h1Zm0 3.667v1.833h-1v-1.833h1Zm0 3.666V30h-1v-.917h1Zm0 .917c0 .376-.024.746-.072 1.11l-.991-.13c.041-.32.063-.648.063-.98h1Zm-.645 3.254a8.516 8.516 0 0 1-1.111 1.92l-.793-.608a7.527 7.527 0 0 0 .98-1.695l.924.383Zm-2.68 3.49c-.585.449-1.23.824-1.921 1.11l-.383-.923a7.515 7.515 0 0 0 1.695-.98l.609.793Zm-4.065 1.684a8.587 8.587 0 0 1-1.11.072v-1c.332 0 .66-.022.98-.063l.13.991ZM127 38.5h-1v-1h1v1Zm-3 0h-2v-1h2v1Zm-4 0h-2v-1h2v1Zm-4 0h-2v-1h2v1Zm-4 0h-2v-1h2v1Zm-4 0h-2v-1h2v1Zm-4 0h-2v-1h2v1Zm-4 0h-2v-1h2v1Zm-4 0h-2v-1h2v1Zm-4 0h-2v-1h2v1Zm-4 0h-2v-1h2v1Zm-4 0h-2v-1h2v1Zm-4 0h-2v-1h2v1Zm-4 0h-2v-1h2v1Zm-4 0h-2v-1h2v1Zm-4 0h-2v-1h2v1Zm-4 0h-2v-1h2v1Zm-4 0h-2v-1h2v1Zm-4 0h-2v-1h2v1Zm-4 0h-2v-1h2v1Zm-4 0h-2v-1h2v1Zm-4 0h-2v-1h2v1Zm-4 0h-2v-1h2v1Zm-4 0h-2v-1h2v1Zm-4 0h-2v-1h2v1Zm-4 0h-1v-1h1v1Zm-1.288-.091-.843-.594.575-.818.844.594-.576.818Zm-2.531-1.781-1.688-1.188.576-.818 1.688 1.188-.576.818Zm-3.375-2.375-1.688-1.188.576-.818 1.688 1.188-.576.818Zm-3.375-2.375-1.688-1.188.576-.818 1.688 1.188-.576.818Zm-3.375-2.375-1.688-1.188.576-.818 1.688 1.188-.576.818Zm-3.375-2.375L8.993 25.94l.576-.818 1.688 1.188-.576.818Zm-3.375-2.375-1.688-1.188.576-.818 1.688 1.188-.576.818Zm-3.375-2.375L2.243 21.19l.576-.818 1.688 1.188-.576.818ZM.556 20.003l-.844-.594.576-.818.843.594-.575.818Zm-.844-1.412.844-.594.575.818-.843.594-.576-.818Zm2.531-1.781 1.688-1.188.575.818-1.687 1.188-.575-.818Zm3.376-2.375 1.687-1.188.575.818-1.687 1.188-.575-.818Zm3.375-2.375 1.687-1.188.576.818-1.688 1.188-.575-.818Zm3.374-2.375 1.688-1.188.576.818-1.688 1.188-.576-.818Zm3.375-2.375 1.688-1.188.575.818-1.687 1.188-.575-.818Zm3.376-2.375 1.687-1.188.575.818-1.687 1.188-.575-.818Zm3.375-2.375 1.687-1.188.575.818-1.687 1.188-.575-.818ZM25.869.185l.843-.594.576.818-.844.594-.575-.818ZM27-.5h1v1h-1v-1Zm3 0h2v1h-2v-1Zm4 0h2v1h-2v-1Zm4 0h2v1h-2v-1Zm4 0h2v1h-2v-1Zm4 0h2v1h-2v-1Zm4 0h2v1h-2v-1Zm4 0h2v1h-2v-1Zm4 0h2v1h-2v-1Zm4 0h2v1h-2v-1Zm4 0h2v1h-2v-1Zm4 0h2v1h-2v-1Zm4 0h2v1h-2v-1Zm4 0h2v1h-2v-1Zm4 0h2v1h-2v-1Zm4 0h2v1h-2v-1Zm4 0h2v1h-2v-1Zm4 0h2v1h-2v-1Zm4 0h2v1h-2v-1Zm4 0h2v1h-2v-1Zm4 0h2v1h-2v-1Zm4 0h2v1h-2v-1Zm4 0h2v1h-2v-1Zm4 0h2v1h-2v-1Zm4 0h2v1h-2v-1Zm4 0h1v1h-1v-1Zm1 0c.376 0 .746.024 1.11.072l-.13.991A7.57 7.57 0 0 0 127 .5v-1Zm3.254.645a8.503 8.503 0 0 1 1.921 1.111l-.609.793a7.52 7.52 0 0 0-1.695-.98l.383-.924Zm3.49 2.68c.449.585.824 1.23 1.111 1.921l-.924.383a7.527 7.527 0 0 0-.98-1.695l.793-.609Zm1.684 4.065c.048.364.072.734.072 1.11h-1c0-.332-.022-.66-.063-.98l.991-.13ZM27 38v1h-.317l-.259-.182L27 38ZM0 19l-.576.818L-1.737 19l1.163-.818L0 19ZM27 0l-.576-.818.26-.182H27v1Zm109 8v.917h-2V8h2Zm0 2.75v1.833h-2V10.75h2Zm0 3.667v1.833h-2v-1.833h2Zm0 3.666v1.834h-2v-1.834h2Zm0 3.667v1.833h-2V21.75h2Zm0 3.667v1.833h-2v-1.833h2Zm0 3.666V30h-2v-.917h2Zm0 .917c0 .398-.026.79-.076 1.174l-1.983-.258c.039-.3.059-.605.059-.916h2Zm-.683 3.445a8.995 8.995 0 0 1-1.177 2.035l-1.586-1.22a6.977 6.977 0 0 0 .915-1.58l1.848.765Zm-2.837 3.695a8.981 8.981 0 0 1-2.035 1.177l-.766-1.848a6.98 6.98 0 0 0 1.582-.915l1.219 1.586Zm-4.306 1.784c-.385.05-.777.076-1.174.076v-2c.311 0 .616-.02.916-.06l.258 1.984ZM127 39h-1v-2h1v2Zm-3 0h-2v-2h2v2Zm-4 0h-2v-2h2v2Zm-4 0h-2v-2h2v2Zm-4 0h-2v-2h2v2Zm-4 0h-2v-2h2v2Zm-4 0h-2v-2h2v2Zm-4 0h-2v-2h2v2Zm-4 0h-2v-2h2v2Zm-4 0h-2v-2h2v2Zm-4 0h-2v-2h2v2Zm-4 0h-2v-2h2v2Zm-4 0h-2v-2h2v2Zm-4 0h-2v-2h2v2Zm-4 0h-2v-2h2v2Zm-4 0h-2v-2h2v2Zm-4 0h-2v-2h2v2Zm-4 0h-2v-2h2v2Zm-4 0h-2v-2h2v2Zm-4 0h-2v-2h2v2Zm-4 0h-2v-2h2v2Zm-4 0h-2v-2h2v2Zm-4 0h-2v-2h2v2Zm-4 0h-2v-2h2v2Zm-4 0h-2v-2h2v2Zm-4 0h-1v-2h1v2Zm-1.576-.182-.843-.594 1.15-1.636.845.594-1.152 1.636Zm-2.53-1.781-1.688-1.188 1.15-1.636 1.688 1.188-1.15 1.636Zm-3.376-2.375-1.687-1.188 1.15-1.636 1.688 1.188-1.15 1.636Zm-3.375-2.375-1.687-1.188 1.15-1.636 1.688 1.188-1.15 1.636Zm-3.375-2.375-1.687-1.188 1.15-1.636 1.688 1.188-1.15 1.636Zm-3.375-2.375-1.687-1.188 1.15-1.636 1.688 1.188-1.15 1.636Zm-3.375-2.375-1.687-1.188 1.15-1.636 1.688 1.188-1.15 1.636Zm-3.375-2.375-1.687-1.188 1.15-1.636 1.688 1.188-1.15 1.636ZM.268 20.412l-.844-.594 1.151-1.636.844.594-1.15 1.636Zm-.844-2.23.844-.594 1.151 1.636-.844.594-1.15-1.636Zm2.532-1.781 1.687-1.188 1.151 1.636-1.687 1.188L1.956 16.4Zm3.375-2.375 1.687-1.188 1.151 1.636-1.687 1.188-1.151-1.636Zm3.375-2.375 1.687-1.188 1.151 1.636-1.687 1.188-1.151-1.636Zm3.375-2.375 1.687-1.188 1.151 1.636-1.687 1.188-1.151-1.636ZM15.456 6.9l1.687-1.188 1.151 1.636-1.687 1.188L15.456 6.9Zm3.375-2.375 1.687-1.188 1.151 1.636-1.687 1.188-1.151-1.636Zm3.375-2.375L23.893.963 25.044 2.6l-1.687 1.188-1.151-1.636ZM25.58-.224l.843-.594L27.576.818l-.844.594L25.58-.224ZM27-1h1v2h-1v-2Zm3 0h2v2h-2v-2Zm4 0h2v2h-2v-2Zm4 0h2v2h-2v-2Zm4 0h2v2h-2v-2Zm4 0h2v2h-2v-2Zm4 0h2v2h-2v-2Zm4 0h2v2h-2v-2Zm4 0h2v2h-2v-2Zm4 0h2v2h-2v-2Zm4 0h2v2h-2v-2Zm4 0h2v2h-2v-2Zm4 0h2v2h-2v-2Zm4 0h2v2h-2v-2Zm4 0h2v2h-2v-2Zm4 0h2v2h-2v-2Zm4 0h2v2h-2v-2Zm4 0h2v2h-2v-2Zm4 0h2v2h-2v-2Zm4 0h2v2h-2v-2Zm4 0h2v2h-2v-2Zm4 0h2v2h-2v-2Zm4 0h2v2h-2v-2Zm4 0h2v2h-2v-2Zm4 0h2v2h-2v-2Zm4 0h1v2h-1v-2Zm1 0c.398 0 .789.026 1.174.076l-.258 1.983c-.3-.039-.605-.059-.916-.059v-2Zm3.445.683A8.98 8.98 0 0 1 132.48.86l-1.219 1.586a6.984 6.984 0 0 0-1.582-.915l.766-1.848Zm3.695 2.837a8.994 8.994 0 0 1 1.177 2.035l-1.848.766a6.978 6.978 0 0 0-.915-1.582l1.586-1.219Zm1.784 4.306c.05.385.076.777.076 1.174h-2c0-.31-.02-.616-.059-.916l1.983-.258Z"
    />
  </symbol>
  <symbol id="lucide-bike" viewBox="0 0 24 24">
    <g fill="none" stroke="currentColor" stroke-linecap="round" stroke-linejoin="round" stroke-width="2">
      <circle cx="18.5" cy="17.5" r="3.5" />
      <circle cx="5.5" cy="17.5" r="3.5" />
      <circle cx="15" cy="5" r="1" />
      <path d="M12 17.5V14l-3-3l4-3l2 3h2" />
    </g>
  </symbol>
  <symbol id="lucide-walk" viewBox="0 0 18 18">
    <g fill="none" stroke="currentColor" stroke-linecap="round" stroke-linejoin="round" stroke-width="2">
      <path d="m5.25 15.75 2.25-3m4.5 3-1.5-3-2.25-2.25L9 6m0-3a.75.75 0 1 0 1.5 0A.75.75 0 0 0 9 3Z" />
      <path d="M4.5 9 6 6.75 9 6l2.25 2.25L13.5 9" />
    </g>
  </symbol>
  <symbol id="lucide-bus" viewBox="0 0 24 24">
    <g fill="none" stroke="currentColor" stroke-linecap="round" stroke-linejoin="round" stroke-width="2">
      <path
        d="M8 6v6m7-6v6M2 12h19.6M18 18h3s.5-1.7.8-2.8c.1-.4.2-.8.2-1.2s-.1-.8-.2-1.2l-1.4-5C20.1 6.8 19.1 6 18 6H4a2 2 0 0 0-2 2v10h3" />
      <circle cx="7" cy="18" r="2" />
      <path d="M9 18h5" />
      <circle cx="16" cy="18" r="2" />
    </g>
  </symbol>
  <symbol id="lucide-car-front" viewBox="0 0 24 24">
    <g fill="none" stroke="currentColor" stroke-linecap="round" stroke-linejoin="round" stroke-width="2">
      <path
        d="m21 8l-2 2l-1.5-3.7A2 2 0 0 0 15.646 5H8.4a2 2 0 0 0-1.903 1.257L5 10L3 8m4 6h.01M17 14h.01" />
      <rect width="18" height="8" x="3" y="10" rx="2" />
      <path d="M5 18v2m14-2v2" />
    </g>
  </symbol>
  <symbol id="lucide-ban" viewBox="0 0 24 24">
    <g fill="none" stroke="currentColor" stroke-linecap="round" stroke-linejoin="round" stroke-width="2">
      <circle cx="12" cy="12" r="10" />
      <path d="m4.9 4.9l14.2 14.2" />
    </g>
  </symbol>
  <symbol id="question-mark" viewBox="0 0 18 18">
    <path fill="currentColor" d="M9.294 3c1.142 0 2.058.313 2.75.938.702.615 1.053 1.465 1.053 2.552 0 1.075-.346 1.898-1.037 2.469-.692.56-1.608.84-2.75.84l-.065 1.267H7.22l-.082-2.799h.74c.955 0 1.69-.126 2.207-.378.515-.253.773-.713.773-1.383 0-.483-.143-.867-.428-1.152-.274-.285-.653-.428-1.136-.428-.504 0-.9.137-1.185.411-.274.275-.411.653-.411 1.136H5.525c-.011-.67.132-1.267.428-1.794.296-.527.73-.938 1.3-1.235C7.835 3.148 8.515 3 9.294 3Zm-1.07 12c-.417 0-.762-.126-1.037-.379a1.32 1.32 0 0 1-.395-.97c0-.385.132-.703.395-.956.275-.263.62-.395 1.037-.395.406 0 .741.132 1.005.395.263.253.395.571.395.955s-.132.708-.395.971c-.264.253-.599.379-1.005.379Z"/>
  </symbol>
  <symbol id="pencil" fill="none" viewBox="0 0 24 24">
    <path fill="currentColor" d="M14.995 4.731a.79.79 0 0 1 1.116 0l3.158 3.158a.79.79 0 0 1 0 1.116L9.006 19.27a.79.79 0 0 1-.559.231H5.29a.79.79 0 0 1-.789-.79v-3.157c0-.21.083-.41.231-.559L12.626 7.1l2.369-2.369Zm-1.81 4.043L6.078 15.88v2.042h2.042l7.105-7.105-2.042-2.042Zm3.157.925 1.252-1.252-2.041-2.041L14.3 7.658l2.041 2.041Z"/>
  </symbol>
</svg>
