<svg xmlns="http://www.w3.org/2000/svg">
  <symbol id="tabler:truck" viewBox="0 0 24 24">
    <g fill="none" stroke="currentColor" stroke-linecap="round" stroke-linejoin="round"
      stroke-width="2">
      <path d="M5 17a2 2 0 1 0 4 0a2 2 0 1 0-4 0m10 0a2 2 0 1 0 4 0a2 2 0 1 0-4 0" />
      <path d="M5 17H3V6a1 1 0 0 1 1-1h9v12m-4 0h6m4 0h2v-6h-8m0-5h5l3 5" />
    </g>
  </symbol>
  <symbol viewBox="0 0 24 24">
    <path id="tabler:external-link" fill="none" stroke="currentColor" stroke-linecap="round" stroke-linejoin="round"
      stroke-width="2"
      d="M12 6H6a2 2 0 0 0-2 2v10a2 2 0 0 0 2 2h10a2 2 0 0 0 2-2v-6m-7 1l9-9m-5 0h5v5" />
  </symbol>
</svg>
