<svg xmlns="http://www.w3.org/2000/svg">
  <symbol id="question-mark" viewBox="0 0 38 39">
    <path fill="currentColor" d="M19.621 6.604c2.41 0 4.344.66 5.804 1.981 1.482 1.298 2.224 3.093 2.224 5.387 0 2.27-.73 4.008-2.19 5.212-1.459 1.182-3.393 1.773-5.803 1.773l-.139 2.675h-4.274l-.174-5.907h1.564c2.015 0 3.568-.267 4.656-.8 1.09-.532 1.634-1.505 1.634-2.919 0-1.019-.301-1.83-.904-2.432-.579-.602-1.378-.904-2.398-.904-1.065 0-1.9.29-2.502.87-.579.578-.869 1.378-.869 2.397h-4.587c-.023-1.413.278-2.676.904-3.788.625-1.112 1.54-1.98 2.745-2.606 1.228-.626 2.664-.939 4.31-.939Zm-2.258 25.334c-.88 0-1.61-.267-2.19-.8-.556-.556-.834-1.239-.834-2.05 0-.81.278-1.483.834-2.015.58-.556 1.31-.834 2.19-.834.857 0 1.563.278 2.12.834.555.532.833 1.204.833 2.015 0 .811-.278 1.494-.834 2.05-.556.533-1.262.8-2.12.8Z"/>
  </symbol>
</svg>
