<svg xmlns="http://www.w3.org/2000/svg">
  <symbol id="jam-arrows-h" viewBox="-2 -6 24 24"><path fill="currentColor" d="M3.423 4.996h13.154L14.04 2.46a1 1 0 1 1 1.415-1.414l4.242 4.243a1 1 0 0 1 0 1.414l-4.242 4.242a1 1 0 0 1-1.415-1.414l2.536-2.535H3.423L5.96 9.53a1 1 0 1 1-1.415 1.414L.302 6.703a.997.997 0 0 1 0-1.414l4.242-4.243A1 1 0 1 1 5.96 2.46z"/></symbol>
  <symbol id="lucide-route" viewBox="0 0 24 24"><g fill="none" stroke="currentColor" stroke-linecap="round" stroke-linejoin="round" stroke-width="2"><circle cx="6" cy="19" r="3"/><path d="M9 19h8.5a3.5 3.5 0 0 0 0-7h-11a3.5 3.5 0 0 1 0-7H15"/><circle cx="18" cy="5" r="3"/></g></symbol>
  <symbol id="tabler-leaf" viewBox="0 0 24 24"><g fill="none" stroke="currentColor" stroke-linecap="round" stroke-linejoin="round" stroke-width="2"><path d="M5 21c.5-4.5 2.5-8 7-10"/><path d="M9 18c6.218 0 10.5-3.288 11-12V4h-4.014c-9 0-11.986 4-12 9c0 1 0 3 2 5h3z"/></g></symbol>
  <symbol id="tabler-progress" viewBox="0 0 24 24"><path fill="none" stroke="currentColor" stroke-linecap="round" stroke-linejoin="round" stroke-width="2" d="M10 20.777a9 9 0 0 1-2.48-.969M14 3.223a9.003 9.003 0 0 1 0 17.554m-9.421-3.684a9 9 0 0 1-1.227-2.592M3.124 10.5c.16-.95.468-1.85.9-2.675l.169-.305m2.714-2.941A9 9 0 0 1 10 3.223"/></symbol>
</svg>
