<svg xmlns="http://www.w3.org/2000/svg">
  <symbol id="colleagues" fill="none" viewBox="0 0 48 48"><path fill="currentColor" d="M29 30.25V26.5h15v11.25c0 2.031-1.797 3.75-3.75 3.75H7.75C5.719 41.5 4 39.781 4 37.75V26.5h15v3.75c0 .703.547 1.25 1.25 1.25h7.5c.625 0 1.25-.547 1.25-1.25ZM40.25 14c1.953 0 3.75 1.797 3.75 3.75V24H4v-6.25C4 15.797 5.719 14 7.75 14H14v-3.75c0-1.953 1.719-3.75 3.75-3.75h12.5c1.953 0 3.75 1.797 3.75 3.75V14h6.25ZM29 14v-2.5H19V14h10Z"/></symbol>
  <symbol id="schoolmates" fill="none" viewBox="0 0 52 48"><path fill="currentColor" d="M49.594 16.031a1.82 1.82 0 0 1 0 3.516l-21.797 6.719c-1.563.468-2.969.234-3.672 0L8.891 21.578c-1.016.625-1.563 1.719-1.641 2.89.703.391 1.25 1.173 1.25 2.032 0 .86-.469 1.563-1.094 2.031l1.953 8.985c.157.78-.39 1.484-1.171 1.484H3.734c-.78 0-1.328-.703-1.171-1.484l1.953-8.985A2.48 2.48 0 0 1 3.5 26.5c0-.86.469-1.64 1.25-2.11.078-1.328.547-2.656 1.406-3.671l-3.828-1.172a1.82 1.82 0 0 1 0-3.516l21.797-6.718a5.9 5.9 0 0 1 3.672 0l21.797 6.718ZM28.5 28.688l11.328-3.516L41 34c0 2.813-6.719 5-15 5-8.36 0-15-2.188-15-5l1.094-8.828 11.328 3.515c.937.313 2.89.625 5.078 0Z"/></symbol>
  <symbol id="family" fill="none" viewBox="0 0 50 48"><path fill="currentColor" d="M15 24a8.736 8.736 0 0 1-8.75-8.75c0-4.766 3.906-8.75 8.75-8.75 4.766 0 8.75 3.984 8.75 8.75 0 4.844-3.984 8.75-8.75 8.75Zm5.938 2.5c5 0 9.062 4.063 9.062 9.063v2.187a3.75 3.75 0 0 1-3.75 3.75H3.75C1.64 41.5 0 39.86 0 37.75v-2.188c0-5 3.984-9.062 8.984-9.062h.625c1.641.781 3.438 1.25 5.391 1.25 1.875 0 3.672-.469 5.313-1.25h.625ZM37.5 24c-4.14 0-7.5-3.36-7.5-7.5 0-4.14 3.36-7.5 7.5-7.5 4.14 0 7.5 3.36 7.5 7.5 0 4.14-3.36 7.5-7.5 7.5Zm3.75 2.5c4.766 0 8.75 3.984 8.75 8.75A3.75 3.75 0 0 1 46.25 39H32.422c0-.156.078-.313.078-.469v-2.968c0-3.047-1.25-5.782-3.125-7.813a8.194 8.194 0 0 1 4.375-1.25h.234c1.094.39 2.266.625 3.516.625 1.172 0 2.344-.234 3.438-.625h.312Z"/></symbol>
</svg>
