<svg xmlns="http://www.w3.org/2000/svg">
  <symbol id="calendar" viewBox="0 0 24 24">
    <path fill="none" stroke="currentColor" stroke-linecap="round" stroke-linejoin="round" stroke-width="2" d="M4 7a2 2 0 0 1 2-2h12a2 2 0 0 1 2 2v12a2 2 0 0 1-2 2H6a2 2 0 0 1-2-2zm12-4v4M8 3v4m-4 4h16m-9 4h1m0 0v3"/>
  </symbol>
  <symbol id="calendar-plus" viewBox="0 0 24 24">
    <path fill="none" stroke="currentColor" stroke-linecap="round" stroke-linejoin="round" stroke-width="2" d="M12.5 21H6a2 2 0 0 1-2-2V7a2 2 0 0 1 2-2h12a2 2 0 0 1 2 2v5m-4-9v4M8 3v4m-4 4h16m-4 8h6m-3-3v6"/>
  </symbol>
  <symbol id="map-pin" viewBox="0 0 24 24">
    <g fill="none" stroke="currentColor" stroke-linecap="round" stroke-linejoin="round" stroke-width="2"><path d="M20 10c0 6-8 12-8 12s-8-6-8-12a8 8 0 0 1 16 0"/><circle cx="12" cy="10" r="3"/></g>
  </symbol>
</svg>
