<svg xmlns="http://www.w3.org/2000/svg">
  <symbol id="calendar" viewBox="0 0 24 24">
    <path fill="none" stroke="currentColor" stroke-linecap="round" stroke-linejoin="round" stroke-width="2" d="M4 7a2 2 0 0 1 2-2h12a2 2 0 0 1 2 2v12a2 2 0 0 1-2 2H6a2 2 0 0 1-2-2zm12-4v4M8 3v4m-4 4h16m-9 4h1m0 0v3"/>
  </symbol>
  <symbol id="info" viewBox="0 0 24 24">
    <g fill="none" stroke="currentColor" stroke-linecap="round" stroke-linejoin="round" stroke-width="2">
      <path d="M3 12a9 9 0 1 0 18 0a9 9 0 0 0-18 0m9-3h.01" />
      <path d="M11 12h1v4h1" />
    </g>
  </symbol>
</svg>
