<svg xmlns="http://www.w3.org/2000/svg">
  <symbol id="tabler:file-type-pdf" viewBox="0 0 24 24">
    <g fill="none" stroke="currentColor" stroke-linecap="round" stroke-linejoin="round" stroke-width="2">
      <path d="M14 3v4a1 1 0 0 0 1 1h4" />
      <path d="M5 12V5a2 2 0 0 1 2-2h7l5 5v4M5 18h1.5a1.5 1.5 0 0 0 0-3H5v6m12-3h2m1-3h-3v6m-6-6v6h1a2 2 0 0 0 2-2v-2a2 2 0 0 0-2-2z" />
    </g>
  </symbol>
  <symbol id="tabler:file-type-xml" viewBox="0 0 24 24">
    <g fill="none" stroke="currentColor" stroke-linecap="round" stroke-linejoin="round" stroke-width="2">
      <path d="M14 3v4a1 1 0 0 0 1 1h4" />
      <path d="M5 12V5a2 2 0 0 1 2-2h7l5 5v4M4 15l4 6m-4 0l4-6m11 0v6h3m-11 0v-6l2.5 3l2.5-3v6" />
    </g>
  </symbol>
</svg>
