<svg xmlns="http://www.w3.org/2000/svg" viewBox="0 0 736.29 876.09"><rect width="368.93" height="627.5" x="188.15" y="153.46" rx="52.03" ry="52.03" style="fill:#7f75b5"/><path d="M301.96 727.46c38.56-24.66 217.37-18.19 216.83-101.62-.61-94.47-271.58-2.34-274.34-91.45-2.79-90.2 137.32-27.97 183.56-29.53 27.75-.94 44.2-31.33 43.73-49.83" style="fill:none;stroke:#e1e0af;stroke-miterlimit:10;stroke-width:39px"/><path d="M473.01 460.36c1.1-1.31 141.36-171.31 143.46-223.87 1.98-49.56-22.9-138.72-140.31-141.81v-.09c-1.07 0-2.11.02-3.16.04-1.05-.01-2.09-.04-3.16-.04v.09c-117.41 3.09-144.66 92.4-140.31 141.81 4.72 53.61 142.36 222.56 143.46 223.87v.02-.02Z" style="fill:#f39b9c"/><circle cx="474.31" cy="222.57" r="87.5" style="fill:#fff"/></svg>
