<svg xmlns="http://www.w3.org/2000/svg" fill="none" viewBox="0 0 1121.287 218.501"><path fill="#f7faff" d="M.005 129.911h65.282c132 0 106.87-94.911 233-94.911h445c131.5 0 101 95 234 95h144v88.501H.005Z"/><path fill="#dce1ed" d="m324.818 39.61-6.25-7.11h2.422c.703 0 1.328-.39 1.563-1.016a1.664 1.664 0 0 0-.235-1.875l-6.093-7.109h2.265c.703 0 1.328-.39 1.64-1.016.235-.625.157-1.406-.39-1.875l-8.594-9.218c-.468-.47-1.328-.47-1.797 0l-8.593 9.218c-.547.47-.625 1.25-.391 1.875a1.823 1.823 0 0 0 1.64 1.016h2.266l-6.093 7.11a1.664 1.664 0 0 0-.235 1.874c.235.625.86 1.016 1.563 1.016h2.422l-6.25 7.11a1.664 1.664 0 0 0-.235 1.874c.235.625.938 1.016 1.64 1.016h10.704v1.953l-2.422 3.75c-.39.86.234 1.875 1.172 1.875h7.422c.937 0 1.562-1.016 1.172-1.875l-2.344-3.75V42.5h10.625c.703 0 1.406-.39 1.64-1.016a1.664 1.664 0 0 0-.234-1.875zM524.303 29.61l-6.25-7.11h2.42c.705 0 1.33-.39 1.564-1.016a1.666 1.666 0 0 0-.234-1.875l-6.094-7.109h2.265c.704 0 1.329-.39 1.64-1.016.235-.625.157-1.406-.39-1.875L510.63.391c-.47-.47-1.328-.47-1.797 0l-8.594 9.218c-.547.47-.625 1.25-.391 1.875a1.823 1.823 0 0 0 1.64 1.016h2.267l-6.094 7.11a1.662 1.662 0 0 0-.234 1.874c.234.625.859 1.016 1.562 1.016h2.422l-6.25 7.11a1.662 1.662 0 0 0-.234 1.874c.234.625.937 1.016 1.64 1.016h10.703v1.953l-2.422 3.75c-.39.86.235 1.875 1.172 1.875h7.422c.938 0 1.563-1.016 1.172-1.875l-2.344-3.75V32.5h10.625c.703 0 1.407-.39 1.64-1.016a1.666 1.666 0 0 0-.233-1.875zM796.756 58.61l6.25-7.11h-2.422c-.703 0-1.328-.39-1.563-1.016a1.664 1.664 0 0 1 .235-1.875l6.094-7.109h-2.266c-.703 0-1.328-.39-1.641-1.016-.234-.625-.156-1.406.39-1.875l8.595-9.218c.468-.47 1.328-.47 1.797 0l8.593 9.218c.547.47.625 1.25.39 1.875a1.823 1.823 0 0 1-1.64 1.016h-2.265l6.093 7.11c.469.546.547 1.25.235 1.874-.235.625-.86 1.016-1.563 1.016h-2.422l6.25 7.11c.469.546.547 1.25.235 1.874-.235.625-.938 1.016-1.641 1.016h-10.703v1.953l2.422 3.75c.39.86-.234 1.875-1.172 1.875h-7.422c-.937 0-1.562-1.015-1.172-1.875l2.344-3.75V61.5h-10.625c-.703 0-1.406-.39-1.641-1.016a1.664 1.664 0 0 1 .235-1.875zM853.273 61.899a2.439 2.439 0 0 1-.892-3.33c.66-1.143 2.186-1.552 3.33-.892a2.438 2.438 0 0 1 .892 3.33 2.407 2.407 0 0 1-3.33.892zm-2.896 5.423c-.347.093-.706.003-1.013-.175l-.044-.025-2.815-1.625a1.636 1.636 0 0 1-.595-2.22c.432-.748 1.472-1.026 2.22-.595l2.33 1.346 4.57-.704c.366-.024.75.022 1.058.2.352.203.627.538.72.885l2.488 7.066c.156.441.103.939-.125 1.334-.305.528-.753.797-1.302.832l-5.002.337-2.793 4.838a1.604 1.604 0 0 1-2.22.594 1.636 1.636 0 0 1-.595-2.22l3.25-5.629c.324-.458.772-.727 1.32-.762l2.514-.19-1.281-3.672zm-6.092-1.23c3.123 1.802 4.157 5.8 2.379 8.879a6.48 6.48 0 0 1-8.88 2.379c-3.077-1.777-4.181-5.757-2.378-8.88 1.777-3.078 5.8-4.156 8.879-2.378zm-4.875 8.443c1.583.915 3.526.394 4.44-1.19a3.24 3.24 0 0 0-1.19-4.439c-1.54-.888-3.551-.35-4.44 1.19a3.24 3.24 0 0 0 1.19 4.44zm21.763 1.307c3.122 1.802 4.156 5.8 2.379 8.879a6.48 6.48 0 0 1-8.88 2.379c-3.078-1.777-4.181-5.757-2.378-8.88 1.777-3.078 5.8-4.156 8.879-2.378zm-4.875 8.443c1.583.914 3.525.394 4.439-1.19a3.24 3.24 0 0 0-1.19-4.439c-1.538-.888-3.55-.35-4.44 1.19a3.24 3.24 0 0 0 1.19 4.44zM397.747 23.534a2.439 2.439 0 0 0 2.26-2.602c-.092-1.317-1.284-2.354-2.602-2.261a2.437 2.437 0 0 0-2.26 2.602 2.406 2.406 0 0 0 2.602 2.26zm5.294 7.264-1.207-.526-.614-1.484c-.916-2.176-3.103-3.6-5.437-3.488-1.823.128-2.797.757-4.618 1.648-1.086.483-1.938 1.408-2.37 2.508l-.308.683c-.35.84.074 1.777.862 2.129.839.348 1.78-.023 2.128-.862l.305-.734c.127-.366.413-.64.757-.817l1.329-.653-.543 3.143c-.23 1.085.153 2.178.969 2.936l3.22 3.083c.434.377.723.865.859 1.365l1.222 3.63c.263.847 1.164 1.344 2.007 1.03a1.582 1.582 0 0 0 1.08-2.01l-1.43-4.43a3.501 3.501 0 0 0-.86-1.365l-2.507-2.37.619-3.505.36.79c.31.792.965 1.408 1.754 1.76l1.207.526c.789.352 1.726-.07 2.078-.858.349-.84-.026-1.831-.862-2.129zm-11.103 7.906a3.214 3.214 0 0 1-.631 1.164l-2.355 2.71a1.566 1.566 0 0 0 .16 2.28 1.566 1.566 0 0 0 2.28-.16l2.829-3.202c.283-.325.457-.744.63-1.164l.539-1.768c-3-2.844-2.071-1.942-2.57-2.518zM347.975 20.313a2.8 2.8 0 0 0 2.812 2.812 2.826 2.826 0 0 0 2.812-2.813c0-1.523-1.29-2.812-2.812-2.812-1.562 0-2.812 1.29-2.812 2.813zm9.92.078a1.204 1.204 0 0 0-1.756 0l-3.4 3.359h-3.944l-3.4-3.36a1.204 1.204 0 0 0-1.756 0 1.204 1.204 0 0 0 0 1.758l3.71 3.711V36.25c0 .703.547 1.25 1.25 1.25h.626c.664 0 1.25-.547 1.25-1.25v-4.375h.624v4.375c0 .703.547 1.25 1.25 1.25h.626c.664 0 1.25-.547 1.25-1.25V25.86l3.67-3.712a1.204 1.204 0 0 0 0-1.757zM187.588 67.94a2.438 2.438 0 0 0 .71-3.372c-.721-1.106-2.267-1.432-3.373-.71a2.437 2.437 0 0 0-.71 3.373 2.406 2.406 0 0 0 3.373.71zm8.159 3.774-1.311.127-1.258-.998c-1.858-1.456-4.462-1.637-6.447-.404-1.531.999-2.076 2.022-3.234 3.686-.714.95-1.008 2.173-.851 3.344l.063.747c.103.902.928 1.516 1.788 1.44.903-.103 1.544-.885 1.44-1.788l-.09-.79c-.066-.38.05-.76.265-1.081l.843-1.217 1.054 3.01c.327 1.06 1.193 1.83 2.275 2.094l4.312 1.128a2.793 2.793 0 0 1 1.415.775l2.833 2.578c.642.612 1.67.609 2.254-.075.655-.67.609-1.67-.033-2.283l-3.404-3.175a3.502 3.502 0 0 0-1.415-.775l-3.344-.85-1.163-3.365.699.514c.657.542 1.528.763 2.388.687l1.31-.128c.86-.076 1.475-.9 1.399-1.76-.103-.903-.913-1.587-1.788-1.441zM189.89 84.02c.094.424.103.902.014 1.324l-.74 3.514a1.566 1.566 0 0 0 1.249 1.914 1.566 1.566 0 0 0 1.914-1.248l.915-4.174c.089-.422.037-.873-.014-1.324l-.39-1.807c-4.004-1.027-2.754-.69-3.47-.95zM227.569 46.93a2.439 2.439 0 0 0 1.106-3.265c-.584-1.184-2.081-1.691-3.265-1.106a2.438 2.438 0 0 0-1.106 3.264 2.406 2.406 0 0 0 3.265 1.107zm-2.25 13.683.082 1.885-3.005 1.484a1.636 1.636 0 0 0-.738 2.176 1.604 1.604 0 0 0 2.176.738l3.506-1.73c.866-.428 1.438-1.334 1.352-2.31l-.04-1.114-.636-.025a5.305 5.305 0 0 1-2.697-1.104zm10.227-10.373-2.05 1.012-2.375-1.829a4.911 4.911 0 0 0-3.924-.95l-3.705.64c-1.477.332-2.641 1.303-3.306 2.594l-1.124 2.311c-.413.77-.077 1.794.738 2.184.816.39 1.772.032 2.162-.784l1.147-2.265c.184-.43.594-.747 1.003-.836l.773-.155.248 4.862c.106 1.59 1.393 2.936 2.983 3.058l4.994.366.749 4.614c.154.886.969 1.503 1.855 1.349.159-.022.296-.09.478-.18.592-.292 1.004-.948.872-1.676l-.814-5.318a2.394 2.394 0 0 0-2.216-1.964l-3.61-.314-.341-4.248 1.855 1.463c.724.548 1.723.622 2.588.194l2.459-1.214a1.636 1.636 0 0 0 .737-2.176c-.382-.774-1.402-1.12-2.176-.738zM672.585 16.984a2.438 2.438 0 0 1-2.438-2.437c0-1.32 1.117-2.438 2.438-2.438a2.438 2.438 0 0 1 2.437 2.438 2.406 2.406 0 0 1-2.437 2.437zm.203 6.145c-.254.254-.61.355-.965.355h-3.301a1.636 1.636 0 0 1-1.625-1.625c0-.863.762-1.625 1.625-1.625h2.692l3.605-2.894c.305-.203.66-.356 1.016-.356.406 0 .812.153 1.066.407l5.688 4.875c.355.304.558.761.558 1.218 0 .61-.254 1.067-.711 1.371l-4.164 2.793v5.586c0 .914-.711 1.625-1.625 1.625a1.636 1.636 0 0 1-1.625-1.625v-6.5c.05-.558.305-1.015.762-1.32l2.082-1.422-2.945-2.539zm-5.891 1.98c3.606 0 6.5 2.946 6.5 6.5a6.48 6.48 0 0 1-6.5 6.5c-3.555 0-6.5-2.894-6.5-6.5 0-3.554 2.945-6.5 6.5-6.5zm0 9.75c1.828 0 3.25-1.422 3.25-3.25a3.24 3.24 0 0 0-3.25-3.25c-1.777 0-3.25 1.473-3.25 3.25a3.24 3.24 0 0 0 3.25 3.25zm19.5-9.75c3.606 0 6.5 2.946 6.5 6.5a6.48 6.48 0 0 1-6.5 6.5c-3.555 0-6.5-2.894-6.5-6.5 0-3.554 2.945-6.5 6.5-6.5zm0 9.75c1.828 0 3.25-1.422 3.25-3.25a3.24 3.24 0 0 0-3.25-3.25c-1.777 0-3.25 1.473-3.25 3.25a3.24 3.24 0 0 0 3.25 3.25zM620.725 18.125a2.438 2.438 0 0 1-2.438-2.438c0-1.32 1.117-2.437 2.438-2.437a2.438 2.438 0 0 1 2.437 2.438 2.406 2.406 0 0 1-2.437 2.437zm.203 6.144c-.254.254-.61.356-.965.356h-3.301c-.863 0-1.625-.71-1.625-1.625 0-.863.762-1.625 1.625-1.625h2.69l3.607-2.894c.305-.204.66-.356 1.016-.356.406 0 .812.152 1.066.406l5.687 4.875c.356.305.559.762.559 1.219 0 .61-.254 1.066-.711 1.371l-4.164 2.793v5.586c0 .914-.711 1.625-1.625 1.625-.863 0-1.625-.71-1.625-1.625v-6.5c.05-.559.305-1.016.762-1.32l2.082-1.422-2.946-2.54zm-5.891 1.981c3.605 0 6.5 2.945 6.5 6.5a6.48 6.48 0 0 1-6.5 6.5c-3.555 0-6.5-2.894-6.5-6.5 0-3.555 2.945-6.5 6.5-6.5zm0 9.75c1.828 0 3.25-1.422 3.25-3.25a3.24 3.24 0 0 0-3.25-3.25c-1.777 0-3.25 1.473-3.25 3.25a3.24 3.24 0 0 0 3.25 3.25zm19.5-9.75c3.605 0 6.5 2.945 6.5 6.5a6.48 6.48 0 0 1-6.5 6.5c-3.555 0-6.5-2.894-6.5-6.5 0-3.555 2.945-6.5 6.5-6.5zm0 9.75c1.828 0 3.25-1.422 3.25-3.25a3.24 3.24 0 0 0-3.25-3.25c-1.777 0-3.25 1.473-3.25 3.25a3.24 3.24 0 0 0 3.25 3.25zM581.217 20.293l-3.301-5.281c-.305-.457-.813-.762-1.371-.762h-20.516c-.558 0-1.117.305-1.422.762l-3.25 5.281c-1.726 2.742-.203 6.5 2.946 6.906.254.051.457.051.71.051 1.524 0 2.844-.66 3.758-1.676a5.018 5.018 0 0 0 3.758 1.676c1.473 0 2.793-.66 3.707-1.676a5.1 5.1 0 0 0 3.758 1.676c1.523 0 2.844-.66 3.758-1.676a5.017 5.017 0 0 0 3.758 1.676c.254 0 .457 0 .71-.05 3.149-.407 4.672-4.165 2.997-6.907zm-3.707 8.582a6.9 6.9 0 0 1-1.473-.152v5.027h-19.5v-5.027a7.758 7.758 0 0 1-1.523.152c-.305 0-.61 0-.915-.05-.304-.052-.558-.102-.812-.153v9.953c0 .914.71 1.625 1.625 1.625h22.75c.863 0 1.625-.71 1.625-1.625v-9.953c-.305.05-.56.152-.863.152-.305.051-.61.051-.914.051zM754.217 26.293l-3.301-5.281c-.305-.457-.813-.762-1.371-.762h-20.516c-.558 0-1.117.305-1.422.762l-3.25 5.281c-1.726 2.742-.203 6.5 2.946 6.906.254.051.457.051.71.051 1.524 0 2.844-.66 3.758-1.676a5.018 5.018 0 0 0 3.758 1.676c1.473 0 2.793-.66 3.707-1.676a5.1 5.1 0 0 0 3.758 1.676c1.523 0 2.844-.66 3.758-1.676a5.017 5.017 0 0 0 3.758 1.676c.254 0 .457 0 .71-.05 3.149-.407 4.672-4.165 2.997-6.907zm-3.707 8.582a6.9 6.9 0 0 1-1.473-.152v5.027h-19.5v-5.027a7.758 7.758 0 0 1-1.523.152c-.305 0-.61 0-.915-.05-.304-.052-.558-.102-.812-.153v9.953c0 .914.71 1.625 1.625 1.625h22.75c.863 0 1.625-.71 1.625-1.625v-9.953c-.305.05-.56.152-.863.152-.305.051-.61.051-.914.051zM435.709 37.5h1.562V1.875c0-1.016.86-1.875 1.875-1.875h26.25c1.094 0 1.875.86 1.875 1.875V37.5h1.563c.547 0 .937.469.937.938V40h-35v-1.563c0-.468.469-.937.938-.937zM459.77 5.937c0-.468-.39-.937-.937-.937h-3.125c-.47 0-.938.469-.938.938v3.125c0 .546.469.937.938.937h3.125c.547 0 .937-.39.937-.938zm0 7.5c0-.468-.39-.937-.937-.937h-3.125c-.47 0-.938.469-.938.938v3.124c0 .547.469.938.938.938h3.125c.547 0 .937-.39.937-.938zM455.709 25h3.125c.547 0 .937-.39.937-.938v-3.125c0-.468-.39-.937-.937-.937h-3.125c-.47 0-.938.469-.938.938v3.125c0 .546.469.937.938.937zm-5.938 12.5h5v-6.563c0-.468-.39-.937-.937-.937h-3.125c-.47 0-.938.469-.938.938zm-5-13.438c0 .547.469.938.938.938h3.125c.547 0 .937-.39.937-.938v-3.125c0-.468-.39-.937-.937-.937h-3.125c-.47 0-.938.469-.938.938zm0-7.5c0 .547.469.938.938.938h3.125c.547 0 .937-.39.937-.938v-3.125c0-.468-.39-.937-.937-.937h-3.125c-.47 0-.938.469-.938.938zm0-7.5c0 .547.469.938.938.938h3.125c.547 0 .937-.39.937-.938V5.938c0-.47-.39-.938-.937-.938h-3.125c-.47 0-.938.469-.938.938z"/></svg>
