<svg xmlns="http://www.w3.org/2000/svg" fill="none" viewBox="0 0 1440 255"><path fill="#212121" d="M0 113h1217.04c47.22 0 92.02 20.856 122.42 56.986L1411 255H0V113Z"/><path fill="#212121" d="M756 99.031h-10.031l8.062-8.062H756v8.062Zm-2.812 12.094c-.626.563-1.344.844-2.157.844-.812 0-1.5-.281-2.062-.844-.625-.625-.938-1.344-.938-2.156 0-.813.313-1.5.938-2.063.562-.625 1.25-.937 2.062-.937.813 0 1.531.312 2.157.937.562.563.843 1.25.843 2.063 0 .812-.281 1.531-.843 2.156Zm6.843-12.094V90.97H768v8.062h-7.969Zm16.125 12.094c-.562.563-1.281.844-2.156.844-.875 0-1.594-.281-2.156-.844-.563-.625-.844-1.344-.844-2.156 0-.813.281-1.5.844-2.063.562-.625 1.281-.937 2.156-.937.875 0 1.594.312 2.156.937.563.563.844 1.25.844 2.063 0 .812-.281 1.531-.844 2.156ZM780 99.031h-7.969V90.97H780v8.062Zm-28.031-12-12 12v9.938h5.062c0 1.625.594 3.031 1.781 4.219 1.188 1.187 2.594 1.781 4.219 1.781 1.625 0 3.031-.594 4.219-1.781 1.188-1.188 1.781-2.594 1.781-4.219H768c0 1.625.594 3.031 1.781 4.219 1.188 1.187 2.594 1.781 4.219 1.781 1.625 0 3.031-.594 4.219-1.781 1.187-1.188 1.781-2.594 1.781-4.219h4.031v-18c0-1.125-.375-2.063-1.125-2.813-.812-.75-1.781-1.125-2.906-1.125h-28.031ZM39.031 113.031h9.938V97h6L35 79 15.031 97h6v16.031h9.938v-12h8.062v12ZM958.531 104.609l-6.25-7.109h2.422c.703 0 1.328-.39 1.563-1.016a1.664 1.664 0 0 0-.235-1.875l-6.093-7.109h2.265c.703 0 1.328-.39 1.641-1.016.234-.625.156-1.406-.391-1.875l-8.594-9.218c-.468-.47-1.328-.47-1.796 0l-8.594 9.218c-.547.47-.625 1.25-.391 1.875a1.823 1.823 0 0 0 1.641 1.016h2.265l-6.093 7.11a1.664 1.664 0 0 0-.235 1.874c.235.625.86 1.016 1.563 1.016h2.422l-6.25 7.109a1.664 1.664 0 0 0-.235 1.875c.235.625.938 1.016 1.641 1.016H941.5v1.953l-2.422 3.75c-.39.859.235 1.875 1.172 1.875h7.422c.937 0 1.562-1.016 1.172-1.875l-2.344-3.75V107.5h10.625c.703 0 1.406-.391 1.641-1.016a1.664 1.664 0 0 0-.235-1.875ZM515.531 104.609l-6.25-7.109h2.422c.703 0 1.328-.39 1.563-1.016a1.664 1.664 0 0 0-.235-1.875l-6.093-7.109h2.265c.703 0 1.328-.39 1.641-1.016.234-.625.156-1.406-.391-1.875l-8.594-9.218c-.468-.47-1.328-.47-1.797 0l-8.593 9.218c-.547.47-.625 1.25-.391 1.875a1.823 1.823 0 0 0 1.641 1.016h2.265l-6.093 7.11a1.664 1.664 0 0 0-.235 1.874c.235.625.86 1.016 1.563 1.016h2.422l-6.25 7.109a1.664 1.664 0 0 0-.235 1.875c.235.625.938 1.016 1.641 1.016H498.5v1.953l-2.422 3.75c-.39.859.234 1.875 1.172 1.875h7.422c.937 0 1.562-1.016 1.172-1.875l-2.344-3.75V107.5h10.625c.703 0 1.406-.391 1.641-1.016a1.664 1.664 0 0 0-.235-1.875ZM280.531 104.609l-6.25-7.109h2.422c.703 0 1.328-.39 1.563-1.016a1.664 1.664 0 0 0-.235-1.875l-6.093-7.109h2.265c.703 0 1.328-.39 1.641-1.016.234-.625.156-1.406-.391-1.875l-8.594-9.218c-.468-.47-1.328-.47-1.797 0l-8.593 9.218c-.547.47-.625 1.25-.391 1.875a1.823 1.823 0 0 0 1.641 1.016h2.265l-6.093 7.11a1.664 1.664 0 0 0-.235 1.874c.235.625.86 1.016 1.563 1.016h2.422l-6.25 7.109a1.664 1.664 0 0 0-.235 1.875c.235.625.938 1.016 1.641 1.016H263.5v1.953l-2.422 3.75c-.39.859.234 1.875 1.172 1.875h7.422c.937 0 1.562-1.016 1.172-1.875l-2.344-3.75V107.5h10.625c.703 0 1.406-.391 1.641-1.016a1.664 1.664 0 0 0-.235-1.875ZM699.531 104.609l-6.25-7.109h2.422c.703 0 1.328-.39 1.563-1.016a1.664 1.664 0 0 0-.235-1.875l-6.093-7.109h2.265c.703 0 1.328-.39 1.641-1.016.234-.625.156-1.406-.391-1.875l-8.594-9.218c-.468-.47-1.328-.47-1.797 0l-8.593 9.218c-.547.47-.625 1.25-.391 1.875a1.823 1.823 0 0 0 1.641 1.016h2.265l-6.093 7.11a1.664 1.664 0 0 0-.235 1.874c.235.625.86 1.016 1.563 1.016h2.422l-6.25 7.109a1.664 1.664 0 0 0-.235 1.875c.235.625.938 1.016 1.641 1.016H682.5v1.953l-2.422 3.75c-.39.859.234 1.875 1.172 1.875h7.422c.937 0 1.562-1.016 1.172-1.875l-2.344-3.75V107.5h10.625c.703 0 1.406-.391 1.641-1.016a1.664 1.664 0 0 0-.235-1.875ZM1126.53 104.609l-6.25-7.109h2.42c.71 0 1.33-.39 1.57-1.016.31-.625.23-1.328-.24-1.875l-6.09-7.109h2.26c.71 0 1.33-.39 1.64-1.016.24-.625.16-1.406-.39-1.875l-8.59-9.218c-.47-.47-1.33-.47-1.8 0l-8.59 9.218c-.55.47-.63 1.25-.39 1.875.31.625.94 1.016 1.64 1.016h2.26l-6.09 7.11c-.47.546-.55 1.25-.23 1.874.23.625.86 1.016 1.56 1.016h2.42l-6.25 7.109c-.47.547-.55 1.25-.23 1.875.23.625.93 1.016 1.64 1.016h10.7v1.953l-2.42 3.75c-.39.859.23 1.875 1.17 1.875h7.42c.94 0 1.56-1.016 1.17-1.875l-2.34-3.75V107.5h10.62c.71 0 1.41-.391 1.65-1.016.31-.625.23-1.328-.24-1.875ZM652.562 95.125A2.438 2.438 0 0 0 655 92.687c0-1.32-1.117-2.437-2.438-2.437a2.438 2.438 0 0 0-2.437 2.438 2.406 2.406 0 0 0 2.437 2.437Zm-.203 6.145c.254.253.61.355.965.355h3.301c.863 0 1.625-.711 1.625-1.625 0-.863-.762-1.625-1.625-1.625h-2.691l-3.606-2.894c-.305-.204-.66-.356-1.016-.356-.406 0-.812.152-1.066.406l-5.687 4.875a1.622 1.622 0 0 0-.559 1.219c0 .609.254 1.066.711 1.371l4.164 2.793v5.586c0 .914.711 1.625 1.625 1.625.863 0 1.625-.711 1.625-1.625v-6.5c-.051-.559-.305-1.016-.762-1.32l-2.082-1.422 2.946-2.54 2.132 1.677Zm5.891 1.98c-3.605 0-6.5 2.945-6.5 6.5a6.48 6.48 0 0 0 6.5 6.5c3.555 0 6.5-2.895 6.5-6.5 0-3.555-2.945-6.5-6.5-6.5Zm0 9.75c-1.828 0-3.25-1.422-3.25-3.25a3.24 3.24 0 0 1 3.25-3.25c1.777 0 3.25 1.473 3.25 3.25a3.24 3.24 0 0 1-3.25 3.25Zm-19.5-9.75c-3.605 0-6.5 2.945-6.5 6.5a6.48 6.48 0 0 0 6.5 6.5c3.555 0 6.5-2.895 6.5-6.5 0-3.555-2.945-6.5-6.5-6.5Zm0 9.75c-1.828 0-3.25-1.422-3.25-3.25a3.24 3.24 0 0 1 3.25-3.25c1.777 0 3.25 1.473 3.25 3.25a3.24 3.24 0 0 1-3.25 3.25ZM94.563 95.125A2.438 2.438 0 0 0 97 92.687c0-1.32-1.117-2.437-2.438-2.437a2.438 2.438 0 0 0-2.437 2.438 2.406 2.406 0 0 0 2.438 2.437Zm-.204 6.145c.254.253.61.355.965.355h3.301c.863 0 1.625-.711 1.625-1.625 0-.863-.762-1.625-1.625-1.625h-2.691l-3.606-2.894c-.305-.204-.66-.356-1.016-.356-.406 0-.812.152-1.066.406l-5.687 4.875a1.623 1.623 0 0 0-.559 1.219c0 .609.254 1.066.71 1.371l4.165 2.793v5.586c0 .914.71 1.625 1.625 1.625.863 0 1.625-.711 1.625-1.625v-6.5c-.05-.559-.305-1.016-.762-1.32l-2.082-1.422 2.946-2.54 2.132 1.677Zm5.891 1.98c-3.606 0-6.5 2.945-6.5 6.5a6.48 6.48 0 0 0 6.5 6.5c3.555 0 6.5-2.895 6.5-6.5 0-3.555-2.945-6.5-6.5-6.5Zm0 9.75c-1.828 0-3.25-1.422-3.25-3.25a3.24 3.24 0 0 1 3.25-3.25c1.777 0 3.25 1.473 3.25 3.25a3.24 3.24 0 0 1-3.25 3.25Zm-19.5-9.75c-3.606 0-6.5 2.945-6.5 6.5a6.48 6.48 0 0 0 6.5 6.5c3.555 0 6.5-2.895 6.5-6.5 0-3.555-2.945-6.5-6.5-6.5Zm0 9.75c-1.828 0-3.25-1.422-3.25-3.25a3.24 3.24 0 0 1 3.25-3.25c1.777 0 3.25 1.473 3.25 3.25a3.24 3.24 0 0 1-3.25 3.25ZM434.438 95.125A2.438 2.438 0 0 1 432 92.687c0-1.32 1.117-2.437 2.438-2.437a2.438 2.438 0 0 1 2.437 2.438 2.406 2.406 0 0 1-2.437 2.437Zm.203 6.145c-.254.253-.61.355-.965.355h-3.301A1.636 1.636 0 0 1 428.75 100c0-.863.762-1.625 1.625-1.625h2.691l3.606-2.894c.305-.204.66-.356 1.016-.356.406 0 .812.152 1.066.406l5.687 4.875c.356.305.559.762.559 1.219 0 .609-.254 1.066-.711 1.371l-4.164 2.793v5.586c0 .914-.711 1.625-1.625 1.625a1.636 1.636 0 0 1-1.625-1.625v-6.5c.051-.559.305-1.016.762-1.32l2.082-1.422-2.946-2.54-2.132 1.677Zm-5.891 1.98c3.605 0 6.5 2.945 6.5 6.5a6.48 6.48 0 0 1-6.5 6.5c-3.555 0-6.5-2.895-6.5-6.5 0-3.555 2.945-6.5 6.5-6.5Zm0 9.75c1.828 0 3.25-1.422 3.25-3.25a3.24 3.24 0 0 0-3.25-3.25c-1.777 0-3.25 1.473-3.25 3.25a3.24 3.24 0 0 0 3.25 3.25Zm19.5-9.75c3.605 0 6.5 2.945 6.5 6.5a6.48 6.48 0 0 1-6.5 6.5c-3.555 0-6.5-2.895-6.5-6.5 0-3.555 2.945-6.5 6.5-6.5Zm0 9.75c1.828 0 3.25-1.422 3.25-3.25a3.24 3.24 0 0 0-3.25-3.25c-1.777 0-3.25 1.473-3.25 3.25a3.24 3.24 0 0 0 3.25 3.25Z"/><path fill="#212121" d="M977.563 95.125A2.438 2.438 0 0 0 980 92.687c0-1.32-1.117-2.437-2.437-2.437a2.438 2.438 0 0 0-2.438 2.438 2.406 2.406 0 0 0 2.438 2.437Zm-.204 6.145c.254.253.61.355.965.355h3.301c.863 0 1.625-.711 1.625-1.625 0-.863-.762-1.625-1.625-1.625h-2.691l-3.606-2.894c-.305-.204-.66-.356-1.015-.356-.407 0-.813.152-1.067.406l-5.687 4.875a1.622 1.622 0 0 0-.559 1.219c0 .609.254 1.066.711 1.371l4.164 2.793v5.586c0 .914.711 1.625 1.625 1.625.863 0 1.625-.711 1.625-1.625v-6.5c-.051-.559-.305-1.016-.762-1.32l-2.082-1.422 2.946-2.54 2.132 1.677Zm5.891 1.98c-3.605 0-6.5 2.945-6.5 6.5a6.48 6.48 0 0 0 6.5 6.5c3.555 0 6.5-2.895 6.5-6.5 0-3.555-2.945-6.5-6.5-6.5Zm0 9.75c-1.828 0-3.25-1.422-3.25-3.25a3.24 3.24 0 0 1 3.25-3.25c1.777 0 3.25 1.473 3.25 3.25a3.24 3.24 0 0 1-3.25 3.25Zm-19.5-9.75c-3.605 0-6.5 2.945-6.5 6.5a6.48 6.48 0 0 0 6.5 6.5c3.555 0 6.5-2.895 6.5-6.5 0-3.555-2.945-6.5-6.5-6.5Zm0 9.75c-1.828 0-3.25-1.422-3.25-3.25a3.24 3.24 0 0 1 3.25-3.25c1.777 0 3.25 1.473 3.25 3.25a3.24 3.24 0 0 1-3.25 3.25ZM1150.44 95.125a2.44 2.44 0 0 1-2.44-2.438c0-1.32 1.12-2.437 2.44-2.437a2.44 2.44 0 0 1 2.44 2.438 2.41 2.41 0 0 1-2.44 2.437Zm.2 6.145c-.25.253-.61.355-.96.355H1146.38c-.87 0-1.63-.711-1.63-1.625 0-.863.76-1.625 1.63-1.625h2.69l3.6-2.894c.31-.204.66-.356 1.02-.356.4 0 .81.152 1.06.406l5.69 4.875c.36.305.56.762.56 1.219 0 .609-.25 1.066-.71 1.371l-4.17 2.793v5.586c0 .914-.71 1.625-1.62 1.625-.86 0-1.62-.711-1.62-1.625v-6.5c.05-.559.3-1.016.76-1.32l2.08-1.422-2.95-2.54-2.13 1.677Zm-5.89 1.98c3.61 0 6.5 2.945 6.5 6.5 0 3.605-2.89 6.5-6.5 6.5-3.55 0-6.5-2.895-6.5-6.5 0-3.555 2.95-6.5 6.5-6.5Zm0 9.75c1.83 0 3.25-1.422 3.25-3.25 0-1.777-1.42-3.25-3.25-3.25-1.78 0-3.25 1.473-3.25 3.25 0 1.828 1.47 3.25 3.25 3.25Zm19.5-9.75c3.61 0 6.5 2.945 6.5 6.5 0 3.605-2.89 6.5-6.5 6.5-3.55 0-6.5-2.895-6.5-6.5 0-3.555 2.95-6.5 6.5-6.5Zm0 9.75c1.83 0 3.25-1.422 3.25-3.25 0-1.777-1.42-3.25-3.25-3.25-1.78 0-3.25 1.473-3.25 3.25 0 1.828 1.47 3.25 3.25 3.25ZM399.109 88.813l-10.859 6.953v-5.313c0-1.484-1.641-2.422-2.891-1.64L374.5 95.766V80.375c0-1.016-.859-1.875-1.875-1.875h-8.75c-1.094 0-1.875.86-1.875 1.875v31.25c0 1.094.781 1.875 1.875 1.875h36.25c1.016 0 1.875-.781 1.875-1.875V90.453c0-1.484-1.641-2.422-2.891-1.64ZM595.875 100h-.813l-5.535-6.856c-.609-.761-1.523-1.218-2.539-1.269h-10.867c-1.32 0-2.539.813-3.047 2.082l-2.386 6.195a3.204 3.204 0 0 0-2.438 3.098v5.688c0 .457.355.812.812.812h2.438c0 2.742 2.133 4.875 4.875 4.875a4.844 4.844 0 0 0 4.875-4.875h6.5c0 2.742 2.133 4.875 4.875 4.875a4.844 4.844 0 0 0 4.875-4.875h2.438c.406 0 .812-.355.812-.812v-4.063a4.877 4.877 0 0 0-4.875-4.875Zm-19.5 12.188a2.406 2.406 0 0 1-2.437-2.438 2.438 2.438 0 0 1 2.437-2.438c1.32 0 2.437 1.118 2.437 2.438a2.438 2.438 0 0 1-2.437 2.438ZM580.031 100h-5.89l1.98-4.875h3.91V100Zm2.438 0v-4.875h4.519l3.91 4.875h-8.429Zm10.156 12.188a2.406 2.406 0 0 1-2.437-2.438 2.438 2.438 0 0 1 2.437-2.438c1.32 0 2.437 1.118 2.437 2.438a2.438 2.438 0 0 1-2.437 2.438ZM561.938 101.938h-27.626c-.457 0-.812.406-.812.812v.812c0 .458.355.813.812.813h27.626c.406 0 .812-.355.812-.813v-.812c0-.406-.406-.812-.812-.812Zm-24.376 4.874h-6.5c-.457 0-.812.407-.812.813v.813c0 .457.355.812.812.812h6.5c.407 0 .813-.355.813-.812v-.813c0-.406-.406-.813-.813-.813Zm21.126 0h-17.063c-.457 0-.813.407-.813.813v.813c0 .457.356.812.813.812h17.063c.406 0 .812-.355.812-.812v-.813c0-.406-.406-.813-.812-.813Zm-21.126-8.937h7.922c1.118 1.016 2.59 1.625 4.266 1.625 1.625 0 3.098-.61 4.215-1.625h3.097c3.098 0 5.688-2.54 5.688-5.688 0-3.097-2.59-5.687-5.688-5.687-.914 0-1.777.254-2.539.66-1.218-2.336-3.656-3.91-6.398-3.91-2.082 0-3.961.914-5.281 2.285-1.371-1.37-3.199-2.285-5.282-2.285-4.062 0-7.312 3.3-7.312 7.313a7.282 7.282 0 0 0 7.312 7.312ZM205.875 100h-.813l-5.535-6.856c-.609-.761-1.523-1.218-2.539-1.269h-10.867c-1.32 0-2.539.813-3.047 2.082l-2.386 6.195a3.204 3.204 0 0 0-2.438 3.098v5.688c0 .457.355.812.812.812h2.438c0 2.742 2.133 4.875 4.875 4.875a4.844 4.844 0 0 0 4.875-4.875h6.5c0 2.742 2.133 4.875 4.875 4.875a4.844 4.844 0 0 0 4.875-4.875h2.438c.406 0 .812-.355.812-.812v-4.063a4.877 4.877 0 0 0-4.875-4.875Zm-19.5 12.188a2.406 2.406 0 0 1-2.437-2.438 2.438 2.438 0 0 1 2.437-2.438c1.32 0 2.437 1.118 2.437 2.438a2.438 2.438 0 0 1-2.437 2.438ZM190.031 100h-5.89l1.98-4.875h3.91V100Zm2.438 0v-4.875h4.519l3.91 4.875h-8.429Zm10.156 12.188a2.406 2.406 0 0 1-2.437-2.438 2.438 2.438 0 0 1 2.437-2.438c1.32 0 2.437 1.118 2.437 2.438a2.438 2.438 0 0 1-2.437 2.438ZM171.938 101.938h-27.626c-.457 0-.812.406-.812.812v.812c0 .458.355.813.812.813h27.626c.406 0 .812-.355.812-.813v-.812c0-.406-.406-.812-.812-.812Zm-24.376 4.874h-6.5c-.457 0-.812.407-.812.813v.813c0 .457.355.812.812.812h6.5c.407 0 .813-.355.813-.812v-.813c0-.406-.406-.813-.813-.813Zm21.126 0h-17.063c-.457 0-.813.407-.813.813v.813c0 .457.356.812.813.812h17.063c.406 0 .812-.355.812-.812v-.813c0-.406-.406-.813-.812-.813Zm-21.126-8.937h7.922c1.118 1.016 2.59 1.625 4.266 1.625 1.625 0 3.098-.61 4.215-1.625h3.097c3.098 0 5.688-2.54 5.688-5.688 0-3.097-2.59-5.687-5.688-5.687-.914 0-1.777.254-2.539.66-1.218-2.336-3.656-3.91-6.398-3.91-2.082 0-3.961.914-5.281 2.285-1.371-1.37-3.199-2.285-5.282-2.285-4.062 0-7.312 3.3-7.312 7.313a7.282 7.282 0 0 0 7.312 7.312ZM853.938 112.5h1.562V76.875c0-1.016.859-1.875 1.875-1.875h26.25c1.094 0 1.875.86 1.875 1.875V112.5h1.563c.546 0 .937.469.937.938V115h-35v-1.562c0-.469.469-.938.938-.938ZM878 80.937c0-.468-.391-.937-.937-.937h-3.125c-.469 0-.938.469-.938.938v3.124c0 .547.469.938.938.938h3.125c.546 0 .937-.39.937-.938v-3.124Zm0 7.5c0-.468-.391-.937-.937-.937h-3.125c-.469 0-.938.469-.938.938v3.124c0 .547.469.938.938.938h3.125c.546 0 .937-.39.937-.938v-3.124ZM873.938 100h3.125c.546 0 .937-.39.937-.938v-3.124c0-.47-.391-.938-.937-.938h-3.125c-.469 0-.938.469-.938.938v3.124c0 .547.469.938.938.938ZM868 112.5h5v-6.562c0-.469-.391-.938-.937-.938h-3.125c-.469 0-.938.469-.938.938v6.562Zm-5-13.438c0 .547.469.938.938.938h3.125c.546 0 .937-.39.937-.938v-3.124c0-.47-.391-.938-.937-.938h-3.125c-.469 0-.938.469-.938.938v3.124Zm0-7.5c0 .547.469.938.938.938h3.125c.546 0 .937-.39.937-.938v-3.124c0-.47-.391-.938-.937-.938h-3.125c-.469 0-.938.469-.938.938v3.124Zm0-7.5c0 .547.469.938.938.938h3.125c.546 0 .937-.39.937-.938v-3.124c0-.47-.391-.938-.937-.938h-3.125c-.469 0-.938.469-.938.938v3.124ZM299.938 112.5h1.562V76.875c0-1.016.859-1.875 1.875-1.875h26.25c1.094 0 1.875.86 1.875 1.875V112.5h1.562c.547 0 .938.469.938.938V115h-35v-1.562c0-.469.469-.938.938-.938ZM324 80.937c0-.468-.391-.937-.938-.937h-3.124c-.469 0-.938.469-.938.938v3.124c0 .547.469.938.938.938h3.124c.547 0 .938-.39.938-.938v-3.124Zm0 7.5c0-.468-.391-.937-.938-.937h-3.124c-.469 0-.938.469-.938.938v3.124c0 .547.469.938.938.938h3.124c.547 0 .938-.39.938-.938v-3.124ZM319.938 100h3.124c.547 0 .938-.39.938-.938v-3.124c0-.47-.391-.938-.938-.938h-3.124c-.469 0-.938.469-.938.938v3.124c0 .547.469.938.938.938ZM314 112.5h5v-6.562c0-.469-.391-.938-.938-.938h-3.124c-.469 0-.938.469-.938.938v6.562Zm-5-13.438c0 .547.469.938.938.938h3.124c.547 0 .938-.39.938-.938v-3.124c0-.47-.391-.938-.938-.938h-3.124c-.469 0-.938.469-.938.938v3.124Zm0-7.5c0 .547.469.938.938.938h3.124c.547 0 .938-.39.938-.938v-3.124c0-.47-.391-.938-.938-.938h-3.124c-.469 0-.938.469-.938.938v3.124Zm0-7.5c0 .547.469.938.938.938h3.124c.547 0 .938-.39.938-.938v-3.124c0-.47-.391-.938-.938-.938h-3.124c-.469 0-.938.469-.938.938v3.124ZM1199.94 112.5h1.56V76.875c0-1.016.86-1.875 1.88-1.875h26.24c1.1 0 1.88.86 1.88 1.875V112.5h1.56c.55 0 .94.469.94.938V115h-35v-1.562c0-.469.47-.938.94-.938ZM1224 80.937a.95.95 0 0 0-.94-.937h-3.12c-.47 0-.94.469-.94.938v3.124c0 .547.47.938.94.938h3.12c.55 0 .94-.39.94-.938v-3.124Zm0 7.5a.95.95 0 0 0-.94-.937h-3.12c-.47 0-.94.469-.94.938v3.124c0 .547.47.938.94.938h3.12c.55 0 .94-.39.94-.938v-3.124ZM1219.94 100h3.12c.55 0 .94-.39.94-.938v-3.124a.95.95 0 0 0-.94-.938h-3.12c-.47 0-.94.469-.94.938v3.124c0 .547.47.938.94.938Zm-5.94 12.5h5v-6.562a.95.95 0 0 0-.94-.938h-3.12c-.47 0-.94.469-.94.938v6.562Zm-5-13.438c0 .547.47.938.94.938h3.12c.55 0 .94-.39.94-.938v-3.124a.95.95 0 0 0-.94-.938h-3.12c-.47 0-.94.469-.94.938v3.124Zm0-7.5c0 .547.47.938.94.938h3.12c.55 0 .94-.39.94-.938v-3.124a.95.95 0 0 0-.94-.938h-3.12c-.47 0-.94.469-.94.938v3.124Zm0-7.5c0 .547.47.938.94.938h3.12c.55 0 .94-.39.94-.938v-3.124a.95.95 0 0 0-.94-.938h-3.12c-.47 0-.94.469-.94.938v3.124ZM819.938 102.938h-27.626c-.457 0-.812.406-.812.812v.812c0 .458.355.813.812.813h27.626c.406 0 .812-.355.812-.813v-.812c0-.406-.406-.812-.812-.812Zm-24.376 4.874h-6.5c-.457 0-.812.407-.812.813v.813c0 .457.355.812.812.812h6.5c.407 0 .813-.355.813-.812v-.813c0-.406-.406-.813-.813-.813Zm21.126 0h-17.063c-.457 0-.813.407-.813.813v.813c0 .457.356.812.813.812h17.063c.406 0 .812-.355.812-.812v-.813c0-.406-.406-.813-.812-.813Zm-21.126-8.937h7.922c1.118 1.016 2.59 1.625 4.266 1.625 1.625 0 3.098-.61 4.215-1.625h3.097c3.098 0 5.688-2.54 5.688-5.688 0-3.097-2.59-5.687-5.688-5.687-.914 0-1.777.254-2.539.66-1.218-2.336-3.656-3.91-6.398-3.91-2.082 0-3.961.914-5.281 2.285-1.371-1.37-3.199-2.285-5.282-2.285-4.062 0-7.312 3.3-7.312 7.313a7.282 7.282 0 0 0 7.312 7.312ZM1030.12 101h.82l5.53-6.856c.61-.761 1.53-1.218 2.54-1.269h10.87c1.32 0 2.54.813 3.05 2.082l2.38 6.195c1.42.356 2.44 1.625 2.44 3.098v5.688c0 .457-.36.812-.81.812h-2.44c0 2.742-2.13 4.875-4.88 4.875a4.84 4.84 0 0 1-4.87-4.875h-6.5c0 2.742-2.13 4.875-4.87 4.875-2.7 0-4.88-2.133-4.88-4.875h-2.44c-.4 0-.81-.355-.81-.812v-4.063a4.873 4.873 0 0 1 4.87-4.875Zm19.5 12.188c1.38 0 2.44-1.067 2.44-2.438 0-1.32-1.06-2.438-2.44-2.438-1.32 0-2.43 1.118-2.43 2.438a2.432 2.432 0 0 0 2.43 2.438ZM1045.97 101h5.89l-1.98-4.875h-3.91V101Zm-2.44 0v-4.875h-4.52L1035.1 101h8.43Zm-10.15 12.188c1.37 0 2.43-1.067 2.43-2.438 0-1.32-1.06-2.438-2.43-2.438-1.33 0-2.44 1.118-2.44 2.438a2.434 2.434 0 0 0 2.44 2.438ZM1089.94 102.938h-27.63c-.45 0-.81.406-.81.812v.812c0 .458.36.813.81.813h27.63c.4 0 .81-.355.81-.813v-.812c0-.406-.41-.812-.81-.812Zm-24.38 4.874h-6.5c-.45 0-.81.407-.81.813v.813c0 .457.36.812.81.812h6.5c.41 0 .82-.355.82-.812v-.813c0-.406-.41-.813-.82-.813Zm21.13 0h-17.07c-.45 0-.81.407-.81.813v.813c0 .457.36.812.81.812h17.07c.4 0 .81-.355.81-.812v-.813c0-.406-.41-.813-.81-.813Zm-21.13-8.937h7.92c1.12 1.016 2.59 1.625 4.27 1.625 1.63 0 3.1-.61 4.21-1.625h3.1c3.1 0 5.69-2.54 5.69-5.688 0-3.097-2.59-5.687-5.69-5.687-.91 0-1.77.254-2.54.66-1.22-2.336-3.65-3.91-6.4-3.91-2.08 0-3.96.914-5.28 2.285-1.37-1.37-3.2-2.285-5.28-2.285-4.06 0-7.31 3.3-7.31 7.313a7.282 7.282 0 0 0 7.31 7.312Z"/></svg>