<svg xmlns="http://www.w3.org/2000/svg" fill="none" viewBox="0 0 135 40" height="40" width="135"><g clip-path="url(#a)"><path fill="#000" d="M130 0H5a5 5 0 0 0-5 5v30a5 5 0 0 0 5 5h125a5 5 0 0 0 5-5V5a5 5 0 0 0-5-5Z"/><path fill="#A6A6A6" d="M130 .8c2.316 0 4.2 1.884 4.2 4.2v30c0 2.316-1.884 4.2-4.2 4.2H5A4.205 4.205 0 0 1 .8 35V5C.8 2.684 2.684.8 5 .8h125Zm0-.8H5C2.25 0 0 2.25 0 5v30c0 2.75 2.25 5 5 5h125c2.75 0 5-2.25 5-5V5c0-2.75-2.25-5-5-5Z"/><path fill="#fff" d="M46.11 9.472a1.79 1.79 0 0 0-.703-.788 1.998 1.998 0 0 0-1.073-.285c-.408 0-.776.095-1.106.285a1.985 1.985 0 0 0-.77.805c-.185.346-.277.748-.277 1.206 0 .458.092.86.276 1.207.19.347.447.615.771.805.33.184.698.276 1.106.276.57 0 1.04-.17 1.408-.511.369-.34.584-.802.646-1.383h-2.33v-.62H47.2v.587c-.044.48-.195.921-.452 1.324a2.845 2.845 0 0 1-1.014.947 2.87 2.87 0 0 1-1.4.343 2.973 2.973 0 0 1-1.483-.377 2.862 2.862 0 0 1-1.064-1.064 3.05 3.05 0 0 1-.386-1.534c0-.57.129-1.08.386-1.533a2.783 2.783 0 0 1 1.064-1.064 2.922 2.922 0 0 1 1.483-.386c.62 0 1.168.154 1.643.461.48.307.83.74 1.047 1.299h-.913Zm2.861-1.073v1.953H51.1v.628H48.97v2.011h2.38v.629H48.21V7.77h3.142v.63h-2.38Zm7.129-.62v.62h-1.592v5.221h-.763V8.4h-1.6v-.62H56.1Zm3.935 0v5.841h-.762V7.78h.762Zm4.895 0v.62h-1.592v5.221h-.763V8.4h-1.6v-.62h3.955Zm5.821 5.9a2.973 2.973 0 0 1-1.483-.377 2.862 2.862 0 0 1-1.064-1.065 3.097 3.097 0 0 1-.386-1.542c0-.57.129-1.08.386-1.533a2.783 2.783 0 0 1 1.064-1.064 2.923 2.923 0 0 1 1.483-.386c.547 0 1.045.129 1.492.386a2.74 2.74 0 0 1 1.056 1.055c.256.453.385.967.385 1.542 0 .576-.129 1.09-.385 1.542a2.8 2.8 0 0 1-1.056 1.065 2.99 2.99 0 0 1-1.492.377Zm0-.662a2.13 2.13 0 0 0 1.098-.285c.33-.19.586-.461.77-.813.19-.352.286-.76.286-1.224 0-.469-.095-.877-.285-1.223a1.986 1.986 0 0 0-.763-.813 2.147 2.147 0 0 0-1.106-.285c-.413 0-.782.095-1.106.285-.324.19-.581.46-.771.813-.184.346-.277.754-.277 1.223 0 .464.093.872.277 1.224.19.352.447.623.77.813.33.19.7.285 1.107.285Zm8.532.603h-.763l-3.067-4.65v4.65h-.762V7.77h.762l3.067 4.643V7.771h.763v5.849Z"/><path fill="#fff" d="m46.11 9.472-.09.043.028.057h.063v-.1Zm-.703-.788-.053.085h.002l.051-.085Zm-2.179 0 .05.087-.05-.087Zm-.77.805-.089-.048.088.048Zm0 2.413-.089.047v.001l.088-.048Zm.77.805-.05.086h.001l.05-.086Zm2.514-.235.068.073-.068-.073Zm.646-1.383.099.01.012-.11h-.111v.1Zm-2.33 0h-.1v.1h.1v-.1Zm0-.62v-.1h-.1v.1h.1Zm3.142 0h.1v-.1h-.1v.1Zm0 .587.1.009v-.01h-.1Zm-.452 1.324.084.054-.084-.054Zm-1.014.947.048.087-.048-.087Zm-2.883-.034-.05.087h.001l.05-.087Zm-1.064-1.064-.087.05.087-.05Zm0-3.067-.087-.05.087.05Zm1.064-1.064.05.087-.05-.087Zm3.126.075-.054.084.054-.084Zm1.047 1.299v.1h.147l-.053-.136-.094.036Zm-.823-.043a1.89 1.89 0 0 0-.743-.83l-.102.17c.289.175.51.422.665.746l.18-.086Zm-.741-.83c-.325-.2-.702-.3-1.126-.3v.2c.392 0 .73.091 1.02.27l.106-.17Zm-1.126-.3c-.424 0-.81.1-1.156.299l.1.173c.314-.18.665-.272 1.056-.272v-.2Zm-1.155.298a2.084 2.084 0 0 0-.81.844l.176.095c.182-.337.426-.59.733-.765l-.1-.174Zm-.81.845c-.193.363-.288.782-.288 1.253h.2c0-.444.089-.83.264-1.16l-.176-.093Zm-.288 1.253c0 .472.095.891.288 1.254l.176-.094c-.175-.33-.264-.715-.264-1.16h-.2Zm.289 1.255c.198.362.467.643.808.843l.1-.173a1.956 1.956 0 0 1-.733-.766l-.175.096Zm.81.844c.345.193.73.29 1.154.29v-.2c-.392 0-.744-.09-1.057-.265l-.098.175Zm1.154.29c.592 0 1.086-.178 1.476-.539l-.136-.146c-.347.32-.791.484-1.34.484v.2Zm1.476-.539c.39-.36.613-.844.677-1.445l-.199-.021c-.06.56-.266.998-.614 1.32l.136.146Zm.578-1.556h-2.33v.2h2.33v-.2Zm-2.23.1v-.62h-.2v.62h.2Zm-.1-.52H47.2v-.2h-3.142v.2Zm3.042-.1v.587h.2v-.587h-.2Zm0 .578c-.043.464-.188.89-.437 1.279l.17.108a3.03 3.03 0 0 0 .467-1.369l-.2-.018Zm-.436 1.278a2.745 2.745 0 0 1-.979.914l.098.175c.433-.242.783-.57 1.049-.98l-.168-.109Zm-.978.914c-.403.22-.853.331-1.352.331v.2c.53 0 1.013-.118 1.448-.356l-.096-.175Zm-1.352.331a2.873 2.873 0 0 1-1.434-.364l-.098.174c.463.26.974.39 1.532.39v-.2Zm-1.433-.364a2.761 2.761 0 0 1-1.028-1.027l-.173.1c.272.468.639.835 1.101 1.1l.1-.172Zm-1.027-1.026a2.95 2.95 0 0 1-.373-1.485h-.2c0 .586.133 1.114.399 1.583l.174-.098Zm-.373-1.485c0-.554.125-1.048.373-1.484l-.174-.099a3.15 3.15 0 0 0-.399 1.583h.2Zm.373-1.483A2.683 2.683 0 0 1 42.9 8.185l-.098-.175c-.463.26-.83.629-1.102 1.102l.174.1ZM42.9 8.184a2.823 2.823 0 0 1 1.433-.372v-.2c-.558 0-1.07.133-1.533.399l.1.173Zm1.433-.372c.603 0 1.131.15 1.588.445l.11-.168c-.493-.319-1.06-.477-1.698-.477v.2Zm1.589.445a2.53 2.53 0 0 1 1.008 1.251l.187-.072a2.73 2.73 0 0 0-1.087-1.347l-.108.168Zm1.101 1.115h-.913v.2h.913v-.2Zm1.947-.973v-.1h-.1v.1h.1Zm0 1.953h-.1v.1h.1v-.1Zm2.129 0h.1v-.1h-.1v.1Zm0 .628v.1h.1v-.1h-.1Zm-2.129 0v-.1h-.1v.1h.1Zm0 2.011h-.1v.1h.1v-.1Zm2.38 0h.1v-.1h-.1v.1Zm0 .629v.1h.1v-.1h-.1Zm-3.142 0h-.1v.1h.1v-.1Zm0-5.85v-.1h-.1v.1h.1Zm3.142 0h.1v-.1h-.1v.1Zm0 .63v.1h.1v-.1h-.1Zm-2.48 0v1.952h.2V8.399h-.2Zm.1 2.052H51.1v-.2H48.97v.2Zm2.029-.1v.628h.2v-.628H51Zm.1.528H48.97v.2H51.1v-.2Zm-2.229.1v2.011h.2v-2.01h-.2Zm.1 2.111h2.38v-.2h-2.38v.2Zm2.28-.1v.629h.2v-.628h-.2Zm.1.529H48.21v.2h3.142v-.2Zm-3.042.1V7.77h-.2v5.85h.2Zm-.1-5.75h3.142v-.2H48.21v.2Zm3.042-.1v.63h.2v-.63h-.2Zm.1.53h-2.38v.2h2.38v-.2Zm4.749-.52h.1v-.1h-.1v.1Zm0 .62v.1h.1v-.1h-.1Zm-1.592 0v-.1h-.1v.1h.1Zm0 5.22v.1h.1v-.1h-.1Zm-.763 0h-.1v.1h.1v-.1Zm0-5.22h.1v-.1h-.1v.1Zm-1.6 0h-.1v.1h.1v-.1Zm0-.62v-.1h-.1v.1h.1Zm3.855 0v.62h.2v-.62H56Zm.1.52h-1.592v.2H56.1v-.2Zm-1.692.1v5.22h.2V8.4h-.2Zm.1 5.12h-.763v.2h.763v-.2Zm-.663.1V8.4h-.2v5.22h.2Zm-.1-5.32h-1.6v.2h1.6v-.2Zm-1.5.1v-.62h-.2v.62h.2Zm-.1-.52H56.1v-.2h-3.955v.2Zm7.89-.1h.1v-.1h-.1v.1Zm0 5.84v.1h.1v-.1h-.1Zm-.762 0h-.1v.1h.1v-.1Zm0-5.84v-.1h-.1v.1h.1Zm.662 0v5.84h.2V7.78h-.2Zm.1 5.74h-.762v.2h.762v-.2Zm-.662.1V7.78h-.2v5.84h.2Zm-.1-5.74h.762v-.2h-.762v.2Zm5.657-.1h.1v-.1h-.1v.1Zm0 .62v.1h.1v-.1h-.1Zm-1.592 0v-.1h-.1v.1h.1Zm0 5.22v.1h.1v-.1h-.1Zm-.763 0h-.1v.1h.1v-.1Zm0-5.22h.1v-.1h-.1v.1Zm-1.6 0h-.1v.1h.1v-.1Zm0-.62v-.1h-.1v.1h.1Zm3.855 0v.62h.2v-.62h-.2Zm.1.52h-1.592v.2h1.592v-.2Zm-1.692.1v5.22h.2V8.4h-.2Zm.1 5.12h-.763v.2h.763v-.2Zm-.663.1V8.4h-.2v5.22h.2Zm-.1-5.32h-1.6v.2h1.6v-.2Zm-1.5.1v-.62h-.2v.62h.2Zm-.1-.52h3.955v-.2h-3.955v.2Zm8.293 5.422-.05.086.05-.086Zm-1.064-1.065-.088.05h.001l.087-.05Zm0-3.075-.087-.05.087.05Zm1.064-1.064.049.087-.05-.087Zm2.975 0-.05.086.05-.086Zm1.056 1.055.086-.049-.087.05Zm0 3.084-.087-.05.087.05Zm-1.056 1.065.049.087-.05-.087Zm-.394-.57-.05-.087.05.087Zm.77-.813-.087-.048v.002l.088.046Zm0-2.447-.088.046.001.002.088-.048Zm-.762-.813-.05.086.05-.086Zm-2.212 0 .05.086-.05-.086Zm-.771.813-.088-.048.088.048Zm0 2.447-.089.046v.001l.089-.047Zm.77.813-.05.086.05-.086Zm1.107.847a2.873 2.873 0 0 1-1.434-.365l-.098.175c.463.26.974.39 1.532.39v-.2Zm-1.433-.364a2.761 2.761 0 0 1-1.028-1.028l-.173.1a2.96 2.96 0 0 0 1.1 1.101l.1-.173Zm-1.027-1.027a2.997 2.997 0 0 1-.373-1.493h-.2c0 .586.132 1.117.398 1.591l.175-.098Zm-.373-1.493c0-.554.125-1.048.372-1.484l-.174-.099a3.15 3.15 0 0 0-.398 1.583h.2Zm.372-1.483a2.682 2.682 0 0 1 1.027-1.027l-.098-.175c-.463.26-.831.629-1.102 1.102l.173.1Zm1.028-1.028a2.823 2.823 0 0 1 1.433-.372v-.2c-.559 0-1.07.133-1.533.399l.1.173Zm1.433-.372c.531 0 1.011.125 1.442.372l.1-.173a3.039 3.039 0 0 0-1.542-.399v.2Zm1.443.373c.43.242.77.58 1.018 1.018l.173-.099a2.84 2.84 0 0 0-1.093-1.094l-.098.175Zm1.018 1.018c.247.436.372.932.372 1.492h.2c0-.59-.132-1.122-.399-1.59l-.173.098Zm.372 1.492c0 .56-.125 1.057-.372 1.493l.173.099c.267-.47.399-1 .399-1.592h-.2Zm-.372 1.493a2.7 2.7 0 0 1-1.02 1.027l.1.173a2.9 2.9 0 0 0 1.093-1.101l-.173-.1Zm-1.018 1.026a2.89 2.89 0 0 1-1.443.365v.2a3.09 3.09 0 0 0 1.54-.39l-.097-.175Zm-1.443-.097a2.23 2.23 0 0 0 1.148-.299l-.1-.173a2.03 2.03 0 0 1-1.048.272v.2Zm1.148-.299c.347-.2.617-.485.81-.853l-.178-.092a1.87 1.87 0 0 1-.732.772l.1.173Zm.809-.852c.199-.368.297-.793.297-1.27h-.2c0 .45-.092.84-.273 1.175l.176.095Zm.297-1.27c0-.484-.098-.909-.298-1.272l-.175.096c.18.33.273.72.273 1.175h.2Zm-.297-1.27a2.086 2.086 0 0 0-.8-.853l-.101.172c.306.18.548.437.724.773l.177-.093Zm-.8-.853c-.341-.2-.728-.299-1.157-.299v.2c.397 0 .748.091 1.056.271l.1-.172Zm-1.157-.299c-.43 0-.816.099-1.157.299l.101.172c.308-.18.659-.27 1.056-.27v-.2Zm-1.157.299c-.34.2-.61.484-.808.851l.176.095c.182-.337.426-.594.733-.774l-.1-.172Zm-.808.852c-.194.363-.289.788-.289 1.27h.2c0-.456.09-.847.265-1.176l-.176-.094Zm-.289 1.27c0 .477.095.902.288 1.27l.178-.092c-.176-.336-.266-.727-.266-1.178h-.2Zm.289 1.271c.198.367.467.652.808.852l.101-.173a1.942 1.942 0 0 1-.733-.774l-.176.095Zm.809.852c.346.2.732.299 1.156.299v-.2c-.392 0-.743-.091-1.056-.272l-.1.173Zm9.688.802v.1h.1v-.1h-.1Zm-.763 0-.083.055.03.045h.053v-.1Zm-3.067-4.65.084-.056-.184-.278v.333h.1Zm0 4.65v.1h.1v-.1h-.1Zm-.762 0h-.1v.1h.1v-.1Zm0-5.85v-.1h-.1v.1h.1Zm.762 0 .084-.054-.03-.045h-.054v.1Zm3.067 4.643-.083.055.183.278v-.333h-.1Zm0-4.642v-.1h-.1v.1h.1Zm.763 0h.1v-.1h-.1v.1Zm0 5.749h-.763v.2h.763v-.2Zm-.68.045-3.066-4.651-.167.11 3.067 4.651.167-.11Zm-3.25-4.596v4.651h.2V8.97h-.2Zm.1 4.551h-.762v.2h.762v-.2Zm-.662.1V7.77h-.2v5.85h.2Zm-.1-5.75h.762v-.2h-.762v.2Zm.679-.044 3.067 4.642.167-.11-3.067-4.642-.167.11Zm3.25 4.587V7.771h-.2v4.642h.2Zm-.1-4.542h.763v-.2h-.763v.2Zm.663-.1v5.849h.2V7.77h-.2ZM68.136 21.752c-2.352 0-4.269 1.788-4.269 4.253 0 2.449 1.917 4.253 4.269 4.253 2.352 0 4.269-1.804 4.269-4.253 0-2.465-1.917-4.253-4.269-4.253Zm0 6.831c-1.289 0-2.401-1.063-2.401-2.578 0-1.531 1.112-2.578 2.401-2.578 1.289 0 2.4 1.047 2.4 2.578 0 1.514-1.112 2.578-2.4 2.578Zm-9.313-6.831c-2.352 0-4.269 1.788-4.269 4.253 0 2.449 1.917 4.253 4.269 4.253 2.352 0 4.269-1.804 4.269-4.253 0-2.465-1.917-4.253-4.269-4.253Zm0 6.831c-1.289 0-2.401-1.063-2.401-2.578 0-1.531 1.112-2.578 2.401-2.578 1.289 0 2.4 1.047 2.4 2.578 0 1.514-1.112 2.578-2.4 2.578Zm-11.079-5.526v1.804h4.318c-.129 1.015-.467 1.756-.983 2.272-.628.628-1.611 1.321-3.335 1.321-2.658 0-4.736-2.143-4.736-4.801 0-2.658 2.078-4.801 4.736-4.801 1.434 0 2.481.564 3.254 1.289l1.273-1.273c-1.079-1.031-2.513-1.821-4.527-1.821-3.641 0-6.702 2.964-6.702 6.605 0 3.641 3.061 6.605 6.702 6.605 1.965 0 3.448-.644 4.608-1.853 1.192-1.192 1.563-2.868 1.563-4.221a5.84 5.84 0 0 0-.097-1.128h-6.074v.002Zm45.308 1.402c-.354-.951-1.434-2.707-3.641-2.707-2.191 0-4.011 1.724-4.011 4.253 0 2.384 1.804 4.253 4.221 4.253 1.949 0 3.077-1.192 3.544-1.885l-1.45-.967c-.483.709-1.144 1.176-2.094 1.176s-1.627-.435-2.062-1.289l5.687-2.352-.193-.483-.001.001Zm-5.8 1.418c-.048-1.643 1.273-2.481 2.223-2.481.741 0 1.369.371 1.579.902l-3.802 1.579Zm-4.624 4.124h1.869V17.499h-1.869v12.502Zm-3.061-7.298h-.064c-.419-.499-1.224-.951-2.239-.951-2.127 0-4.076 1.869-4.076 4.269 0 2.384 1.949 4.237 4.076 4.237 1.015 0 1.821-.451 2.239-.967h.064v.612c0 1.627-.87 2.497-2.272 2.497-1.144 0-1.853-.822-2.143-1.514l-1.627.677c.467 1.128 1.708 2.513 3.77 2.513 2.191 0 4.044-1.289 4.044-4.43V22.01h-1.772v.693Zm-2.143 5.88c-1.289 0-2.368-1.079-2.368-2.562 0-1.498 1.079-2.594 2.368-2.594 1.273 0 2.272 1.096 2.272 2.594 0 1.482-.999 2.562-2.272 2.562Zm24.381-11.084h-4.471V30H99.2v-4.736h2.605c2.068 0 4.101-1.497 4.101-3.883s-2.033-3.883-4.101-3.883v.001Zm.048 6.025h-2.654v-4.285h2.654c1.395 0 2.187 1.155 2.187 2.143 0 .969-.792 2.142-2.187 2.142Zm11.532-1.795c-1.351 0-2.75.595-3.329 1.914l1.657.692c.354-.692 1.013-.917 1.705-.917.965 0 1.946.579 1.962 1.608v.129c-.338-.193-1.062-.483-1.946-.483-1.785 0-3.603.981-3.603 2.815 0 1.673 1.464 2.75 3.104 2.75 1.254 0 1.946-.563 2.38-1.222h.064v.965h1.801v-4.793c0-2.219-1.656-3.458-3.795-3.458Zm-.225 6.851c-.611 0-1.464-.306-1.464-1.061 0-.965 1.061-1.335 1.978-1.335.82 0 1.206.177 1.705.418a2.262 2.262 0 0 1-2.219 1.978Zm10.583-6.578-2.139 5.42h-.064l-2.219-5.42h-2.01l3.329 7.575-1.898 4.214h1.946l5.131-11.789h-2.076ZM106.936 30h1.866V17.499h-1.866V30Z"/><path fill="#EA4335" d="m20.717 19.424-10.647 11.3.002.007a2.874 2.874 0 0 0 4.236 1.734l.034-.02 11.984-6.915-5.609-6.106Z"/><path fill="#FBBC04" d="m31.488 17.5-.01-.007-5.174-3-5.829 5.187 5.85 5.848 5.145-2.969a2.877 2.877 0 0 0 .017-5.06l.001.001Z"/><path fill="#4285F4" d="M10.07 9.277a2.823 2.823 0 0 0-.098.74v19.968c0 .256.033.504.098.739l11.013-11.011L10.07 9.277Z"/><path fill="#34A853" d="m20.796 20.001 5.51-5.509-11.97-6.94a2.878 2.878 0 0 0-4.265 1.723v.003l10.726 10.724-.001-.001Z"/></g><defs><clipPath id="a"><path fill="#fff" d="M0 0h135v40H0z"/></clipPath></defs></svg>
