<svg xmlns="http://www.w3.org/2000/svg" fill="none" viewBox="0 0 74 28"><path fill="#fff" d="M6.21 24.318H4.164l-.284 3.397H0L2.534 7.733h5.304l2.537 19.983h-3.88l-.286-3.397ZM20.463 22.27c0 4.022-1.733 5.696-4.863 5.696-3.13 0-4.864-1.674-4.865-5.695V7.733h3.88l.001 14.288c0 1.698.13 2.198.983 2.198.854 0 .984-.5.984-2.198l-.001-14.288h3.88l.001 14.537ZM30.552 11.477h-2.665v16.236h-3.88l-.001-16.236h-2.665V7.731h9.21v3.746ZM41.158 13.176v9.092c.001 4.021-1.732 5.695-4.863 5.695-3.13 0-4.864-1.673-4.864-5.695l-.001-9.092c0-4.022 1.733-5.695 4.864-5.696 3.13 0 4.864 1.674 4.864 5.696Z"/><path fill="#fff" d="m54.817 7.729.002 19.983h-3.881l-.001-8.568-1.603 8.568h-1.811l-1.605-8.568v8.568h-3.88L42.036 7.73h3.881l2.51 11.54 2.51-11.54h3.88Z"/><path fill="#fff" d="M2.665 1.027c1.369-1.322 3.588-1.322 4.958 0a3.303 3.303 0 0 1 0 4.786c-1.369 1.321-3.589 1.322-4.958 0a3.302 3.302 0 0 1 0-4.786Z"/><path fill="#fff" d="M61.648 24.315h-2.044l-.284 3.397h-3.881L57.973 7.73h5.304l2.537 19.983h-3.881l-.285-3.397ZM73.989 11.475h-2.665l.001 16.237h-3.881V11.476h-2.666V7.73h9.21v3.746Z"/></svg>
