<svg
xmlns="http://www.w3.org/2000/svg"
fill="none"
viewBox="0 0 142 40"
class="logo"
data-cy="logo"
>
<path
  fill="#43449C"
  fill-rule="evenodd"
  d="M51.358 15.294c.727-.778 1.09-1.822 1.09-3.133 0-1.31-.363-2.354-1.09-3.132-.727-.778-1.726-1.167-2.997-1.167h-1.48v8.6h1.48c1.271 0 2.27-.39 2.997-1.168Zm3.514.409c-.643 1.037-1.532 1.845-2.667 2.422-1.136.577-2.417.866-3.844.866h-4.808V5.332h4.808c1.44 0 2.725.285 3.854.856 1.128.571 2.014 1.375 2.657 2.413.642 1.038.963 2.225.963 3.56 0 1.323-.321 2.504-.963 3.542ZM61.508 9.262c-.655.713-.983 1.666-.983 2.86 0 1.193.328 2.147.983 2.86.655.713 1.534 1.07 2.638 1.07 1.09 0 1.962-.357 2.617-1.07.656-.713.983-1.667.983-2.86 0-1.194-.327-2.147-.983-2.86-.655-.714-1.528-1.07-2.617-1.07-1.104 0-1.983.356-2.638 1.07Zm6.17-3.23a6.574 6.574 0 0 1 2.53 2.49c.617 1.064.925 2.264.925 3.6 0 1.336-.311 2.539-.934 3.61a6.646 6.646 0 0 1-2.53 2.5c-1.065.596-2.239.894-3.523.894-1.285 0-2.463-.298-3.533-.895a6.62 6.62 0 0 1-2.54-2.5c-.623-1.07-.934-2.273-.934-3.61 0-1.335.311-2.535.934-3.599a6.64 6.64 0 0 1 2.54-2.49c1.07-.597 2.248-.895 3.533-.895 1.284 0 2.462.298 3.532.895ZM85.701 10.702c.293-.298.438-.694.438-1.187 0-.48-.149-.875-.447-1.187-.3-.31-.695-.467-1.188-.467h-2.063v3.289h2.063c.506 0 .905-.15 1.197-.448Zm-3.26 2.977v5.312h-3.328V5.332h5.391c1.064 0 1.976.194 2.735.584.76.389 1.33.901 1.713 1.537.383.635.574 1.323.574 2.062 0 .623-.153 1.249-.457 1.878-.305.629-.834 1.167-1.587 1.614-.752.448-1.745.672-2.978.672h-2.063ZM94.859 11.15h2.063c.506 0 .905-.15 1.197-.448.292-.298.438-.694.438-1.187 0-.48-.15-.875-.448-1.187-.299-.31-.694-.467-1.187-.467h-2.063v3.289Zm3.464 7.84-3.075-5.311h-.39v5.312H91.53V5.332h5.392c1.064 0 1.975.194 2.734.584.76.389 1.33.901 1.713 1.537.383.635.575 1.323.575 2.062 0 .792-.241 1.563-.721 2.316-.48.752-1.265 1.284-2.355 1.595l3.348 5.565h-3.893ZM111.617 14.165 110.001 9.3l-1.615 4.865h3.231Zm.662-11.577-4.691 1.965V2.257L112.279 0v2.588Zm.175 14.106h-4.905l-.759 2.296h-3.543l4.75-13.698h4.048l4.73 13.698h-3.562l-.759-2.296ZM128.667 6.343c1.18.804 2.005 1.92 2.472 3.347h-3.971c-.272-.532-.616-.915-1.031-1.149-.416-.233-.922-.35-1.518-.35-1.103 0-1.983.357-2.638 1.07-.655.714-.983 1.667-.983 2.86 0 1.194.328 2.147.983 2.86.655.714 1.535 1.07 2.638 1.07.596 0 1.102-.116 1.518-.35.415-.233.759-.615 1.031-1.147h3.971c-.467 1.427-1.292 2.542-2.472 3.346-1.181.805-2.53 1.207-4.048 1.207-1.285 0-2.463-.299-3.533-.895a6.639 6.639 0 0 1-2.54-2.491c-.623-1.063-.934-2.263-.934-3.6 0-1.335.311-2.535.934-3.599a6.642 6.642 0 0 1 2.54-2.49c1.07-.597 2.248-.895 3.533-.895 1.518 0 2.867.402 4.048 1.206ZM136.608 7.822v2.938h4.36v2.53h-4.36v3.171h4.944v2.53h-8.272V5.293h8.272v2.53h-4.944ZM55.776 38.448h-3.328l-5.566-8.62v8.62h-3.329V24.75h3.329l5.566 8.62v-8.62h3.328v13.698ZM65.78 33.622l-1.615-4.864-1.615 4.864h3.23Zm.838 2.53h-4.905l-.76 2.295h-3.542l4.75-13.697h4.048l4.73 13.697h-3.562l-.76-2.295ZM84.991 31.616l5.625 6.83h-4.281l-4.594-6.032v6.032h-3.328V24.787h3.328v5.993l4.515-5.993h4.36l-5.625 6.83ZM95.064 28.719c-.656.713-.984 1.666-.984 2.86 0 1.193.328 2.147.984 2.86.655.713 1.534 1.07 2.637 1.07 1.09 0 1.962-.357 2.617-1.07.656-.713.983-1.667.983-2.86 0-1.194-.327-2.147-.983-2.86-.655-.713-1.528-1.07-2.617-1.07-1.103 0-1.982.357-2.637 1.07Zm6.169-3.23a6.578 6.578 0 0 1 2.531 2.49c.616 1.064.924 2.264.924 3.6 0 1.336-.311 2.539-.934 3.61a6.645 6.645 0 0 1-2.531 2.5c-1.064.596-2.238.894-3.522.894-1.285 0-2.463-.298-3.533-.895a6.621 6.621 0 0 1-2.54-2.5c-.623-1.07-.934-2.273-.934-3.61 0-1.335.311-2.535.934-3.599a6.644 6.644 0 0 1 2.54-2.49c1.07-.597 2.248-.895 3.533-.895 1.284 0 2.462.298 3.532.895ZM110.157 35.916h4.146v2.53h-7.474V24.787h3.328v11.13ZM119.48 27.28v2.937h4.36v2.53h-4.36v3.171h4.944v2.53h-8.272V24.75h8.272v2.53h-4.944ZM27.349 28.193c-2.02 0-3.76-1.176-4.532-2.851l1.74-.121a3.394 3.394 0 0 0 2.792 1.44c1.853 0 3.36-1.45 3.36-3.236 0-1.783-1.507-3.237-3.36-3.237-.06 0-.12.006-.18.006l-.948-1.409c.36-.084.74-.129 1.128-.129 2.731 0 4.95 2.14 4.95 4.77 0 2.628-2.219 4.767-4.95 4.767Zm-7.745-2.655c-.778 0-1.408-.607-1.408-1.356 0-.132.022-.26.057-.382l-2.24-2.65 1.83-.264 2.115 2.505 6.41-.45-3.111-4.612.67-1.824 4.508 6.694c.155.225.17.511.045.755a.797.797 0 0 1-.653.424l-7.01.488a1.413 1.413 0 0 1-1.213.672Zm-8.87 2.655c-2.73 0-4.95-2.139-4.95-4.768 0-2.034 1.327-3.774 3.192-4.456l.241 1.569c-1.091.536-1.84 1.625-1.84 2.887 0 1.784 1.505 3.235 3.356 3.235 1.854 0 3.36-1.451 3.36-3.235a3.15 3.15 0 0 0-.65-1.909l1.705-.244c.343.648.534 1.378.534 2.153 0 2.63-2.22 4.768-4.949 4.768ZM9.556 15.606l3.599-.511.13-.531-1.509-.265a.767.767 0 0 1-.639-.892.794.794 0 0 1 .924-.616l2.333.408c.215.04.405.157.524.335a.753.753 0 0 1 .109.597l-.178.717 1.7-.241a.449.449 0 0 1 .51.365l.284 1.846-1.478.21-.038-.262a.428.428 0 0 0-.482-.345c-.233.036-.393.243-.358.462l.04.263-3.25.465-.04-.26a.419.419 0 0 0-.48-.344.413.413 0 0 0-.358.465l.04.26-1.478.212-.285-1.845a.44.44 0 0 1 .38-.493Zm2.814 6.066-1.02 2.396a.802.802 0 0 1-1.038.416.756.756 0 0 1-.434-1.002l.66-1.55 1.832-.26Zm5.439-1.839a.435.435 0 0 1-.379.492l-6.993 1.001a.452.452 0 0 1-.513-.366l-.355-2.308 1.48-.212.039.26a.42.42 0 0 0 .419.348l.064-.004a.412.412 0 0 0 .356-.464l-.04-.262 3.25-.464.038.26c.032.203.213.35.421.35l.062-.005a.412.412 0 0 0 .357-.464l-.04-.26 1.478-.212.356 2.31Zm4.247-4.673.637-1.747h-.966c-.44 0-.795-.342-.795-.764a.78.78 0 0 1 .794-.768h3.532c.441 0 .798.343.798.768 0 .422-.357.764-.797.764h-.878l-.895 2.446-.667 1.821-1.834 5.026-.742.054-.675-.799 1.934-5.286-3.552-.111-.24-1.542 4.346.138ZM19.041 1.93C8.525 1.93 0 10.454 0 20.966 0 31.477 8.526 40 19.041 40c10.518 0 19.042-8.523 19.042-19.034 0-10.512-8.524-19.036-19.041-19.036Z"
  clip-rule="evenodd"
/>
</svg>
