<svg xmlns="http://www.w3.org/2000/svg" fill="none" viewBox="0 0 75 28"><g fill="#E94B48" clip-path="url(#a)"><path d="M7.068 24.289H5.024l-.284 3.397H.859L3.393 7.703h5.304l2.536 19.983h-3.88l-.285-3.397ZM21.322 22.24c0 4.021-1.733 5.695-4.864 5.695-3.13 0-4.864-1.673-4.864-5.695l-.001-14.537h3.881V21.99c0 1.699.13 2.198.984 2.198s.983-.499.983-2.198V7.702h3.88V22.24ZM31.41 11.449h-2.665l.002 16.236h-3.881l-.001-16.236H22.2V7.703h9.21v3.746ZM42.017 13.146v9.093c0 4.021-1.733 5.695-4.863 5.695-3.131 0-4.865-1.673-4.865-5.695v-9.092c0-4.022 1.733-5.696 4.863-5.696 3.131 0 4.865 1.673 4.865 5.695ZM55.676 7.7l.002 19.983h-3.881l-.001-8.567-1.603 8.567H48.38l-1.604-8.567v8.568h-3.88l-.002-19.983h3.881l2.51 11.54L51.795 7.7h3.881ZM3.523.997c1.37-1.321 3.589-1.322 4.958 0a3.303 3.303 0 0 1 0 4.786c-1.368 1.322-3.588 1.322-4.957 0a3.302 3.302 0 0 1 0-4.786ZM62.507 24.285h-2.044l-.285 3.398h-3.88L58.831 7.7h5.303l2.537 19.982h-3.88l-.285-3.397ZM74.848 11.445h-2.665v16.237h-3.88l-.001-16.236h-2.665V7.699h9.21v3.746Z"/></g><defs><clipPath id="a"><path fill="#fff" d="M.859.006h74.14v27.989H.86z"/></clipPath></defs></svg>