<svg width="42" height="42" viewBox="0 0 42 42" fill="none" xmlns="http://www.w3.org/2000/svg">
<circle cx="21" cy="21" r="19.5" stroke="#43449C" stroke-width="3"/>
<circle cx="21" cy="21" r="17.25" fill="#43449C" stroke="#43449C" stroke-width="3"/>
<path d="M25.2085 17.292H19.5925V19.776C19.8325 19.512 20.1685 19.296 20.6005 19.128C21.0325 18.96 21.5005 18.876 22.0045 18.876C22.9045 18.876 23.6485 19.08 24.2365 19.488C24.8365 19.896 25.2745 20.424 25.5505 21.072C25.8265 21.72 25.9645 22.422 25.9645 23.178C25.9645 24.582 25.5685 25.698 24.7765 26.526C23.9845 27.342 22.8685 27.75 21.4285 27.75C20.4685 27.75 19.6345 27.588 18.9265 27.264C18.2185 26.928 17.6725 26.466 17.2885 25.878C16.9045 25.29 16.6945 24.612 16.6585 23.844H19.6645C19.7365 24.216 19.9105 24.528 20.1865 24.78C20.4625 25.02 20.8405 25.14 21.3205 25.14C21.8845 25.14 22.3045 24.96 22.5805 24.6C22.8565 24.24 22.9945 23.76 22.9945 23.16C22.9945 22.572 22.8505 22.122 22.5625 21.81C22.2745 21.498 21.8545 21.342 21.3025 21.342C20.8945 21.342 20.5585 21.444 20.2945 21.648C20.0305 21.84 19.8565 22.098 19.7725 22.422H16.8025V14.592H25.2085V17.292Z" fill="#fff"/>
</svg>
