<svg width="42" height="42" viewBox="0 0 42 42" fill="none" xmlns="http://www.w3.org/2000/svg">
<circle cx="21" cy="21" r="21" fill="#43449C" stroke="white" stroke-width="3"/>
<path d="M16.4688 18.318C16.5168 17.034 16.9368 16.044 17.7288 15.348C18.5208 14.652 19.5948 14.304 20.9508 14.304C21.8508 14.304 22.6188 14.46 23.2548 14.772C23.9028 15.084 24.3888 15.51 24.7128 16.05C25.0488 16.59 25.2168 17.196 25.2168 17.868C25.2168 18.66 25.0188 19.308 24.6228 19.812C24.2268 20.304 23.7648 20.64 23.2368 20.82V20.892C23.9208 21.12 24.4608 21.498 24.8568 22.026C25.2528 22.554 25.4508 23.232 25.4508 24.06C25.4508 24.804 25.2768 25.464 24.9288 26.04C24.5928 26.604 24.0948 27.048 23.4348 27.372C22.7868 27.696 22.0128 27.858 21.1128 27.858C19.6728 27.858 18.5208 27.504 17.6568 26.796C16.8048 26.088 16.3548 25.02 16.3068 23.592H19.2948C19.3068 24.12 19.4568 24.54 19.7448 24.852C20.0328 25.152 20.4528 25.302 21.0048 25.302C21.4728 25.302 21.8328 25.17 22.0848 24.906C22.3488 24.63 22.4808 24.27 22.4808 23.826C22.4808 23.25 22.2948 22.836 21.9228 22.584C21.5628 22.32 20.9808 22.188 20.1768 22.188H19.6008V19.686H20.1768C20.7888 19.686 21.2808 19.584 21.6528 19.38C22.0368 19.164 22.2288 18.786 22.2288 18.246C22.2288 17.814 22.1088 17.478 21.8688 17.238C21.6288 16.998 21.2988 16.878 20.8788 16.878C20.4228 16.878 20.0808 17.016 19.8528 17.292C19.6368 17.568 19.5108 17.91 19.4748 18.318H16.4688Z" fill="white"/>
</svg>
