<svg width="42" height="42" viewBox="0 0 42 42" fill="none" xmlns="http://www.w3.org/2000/svg">
<circle cx="21" cy="21" r="21" stroke="white" stroke-width="3"/>
<circle cx="21" cy="21" r="18.75" fill="white" stroke="#43449C" stroke-width="1.5"/>
<path d="M16.5604 25.284C16.9684 24.96 17.1544 24.81 17.1184 24.834C18.2944 23.862 19.2184 23.064 19.8904 22.44C20.5744 21.816 21.1504 21.162 21.6184 20.478C22.0864 19.794 22.3204 19.128 22.3204 18.48C22.3204 17.988 22.2064 17.604 21.9784 17.328C21.7504 17.052 21.4084 16.914 20.9524 16.914C20.4964 16.914 20.1364 17.088 19.8724 17.436C19.6204 17.772 19.4944 18.252 19.4944 18.876H16.5244C16.5484 17.856 16.7644 17.004 17.1724 16.32C17.5924 15.636 18.1384 15.132 18.8104 14.808C19.4944 14.484 20.2504 14.322 21.0784 14.322C22.5064 14.322 23.5804 14.688 24.3004 15.42C25.0324 16.152 25.3984 17.106 25.3984 18.282C25.3984 19.566 24.9604 20.76 24.0844 21.864C23.2084 22.956 22.0924 24.024 20.7364 25.068H25.5964V27.57H16.5604V25.284Z" fill="#43449C"/>
</svg>
