<svg xmlns="http://www.w3.org/2000/svg" fill="none" viewBox="0 0 42 42"><circle cx="21" cy="21" r="21" stroke="#fff" stroke-width="3"/><circle cx="21" cy="21" r="18.75" fill="#fff" stroke="#43449C" stroke-width="1.5"/><path fill="#43449C" d="M25.209 17.292h-5.616v2.484c.24-.264.576-.48 1.008-.648a3.84 3.84 0 0 1 1.404-.252c.9 0 1.643.204 2.232.612.6.408 1.038.936 1.314 1.584s.414 1.35.414 2.106c0 1.404-.396 2.52-1.189 3.348-.791.816-1.907 1.224-3.348 1.224-.96 0-1.794-.162-2.502-.486-.707-.336-1.253-.798-1.637-1.386-.385-.588-.595-1.266-.63-2.034h3.006c.072.372.245.684.521.936.276.24.654.36 1.134.36.564 0 .985-.18 1.26-.54.277-.36.415-.84.415-1.44 0-.588-.145-1.038-.433-1.35-.288-.312-.707-.468-1.26-.468-.407 0-.744.102-1.008.306-.264.192-.438.45-.521.774h-2.97v-7.83h8.405v2.7Z"/></svg>
