<svg xmlns="http://www.w3.org/2000/svg" fill="none" viewBox="0 0 42 42">
  <circle cx="21" cy="21" r="21" fill="#fff" stroke-width="3"/>
  <circle cx="21" cy="21" r="18.75" fill="#fff" stroke="#43449C" stroke-width="1.5"/>
  <path fill="#43449C" d="M22.578 18.156c-.096-.444-.264-.774-.505-.99-.24-.228-.582-.342-1.026-.342-.684 0-1.175.3-1.476.9-.3.588-.456 1.524-.468 2.808.264-.42.642-.75 1.134-.99a3.802 3.802 0 0 1 1.657-.36c1.176 0 2.118.372 2.826 1.116.72.744 1.08 1.782 1.08 3.114 0 .876-.18 1.644-.54 2.304a3.703 3.703 0 0 1-1.549 1.548c-.671.372-1.47.558-2.393.558-1.849 0-3.133-.576-3.853-1.728-.72-1.164-1.08-2.832-1.08-5.004 0-2.28.378-3.972 1.134-5.076.769-1.116 1.993-1.674 3.673-1.674.9 0 1.655.18 2.267.54.625.348 1.093.81 1.404 1.386.325.576.517 1.206.576 1.89h-2.861Zm-1.422 3.456c-.516 0-.948.156-1.296.468-.337.3-.505.732-.505 1.296 0 .576.157 1.026.468 1.35.325.324.78.486 1.369.486.527 0 .942-.156 1.241-.468.313-.324.468-.762.468-1.314 0-.564-.15-1.008-.45-1.332-.3-.324-.732-.486-1.296-.486Z"/>
</svg>
