<svg xmlns="http://www.w3.org/2000/svg">
  <symbol id="ion-person-outline" viewBox="0 0 18 18">
    <path fill="none" stroke="currentColor" stroke-linecap="round" stroke-linejoin="round" stroke-width="2" d="M12.094 5.063C11.956 6.92 10.547 8.438 9 8.438S6.042 6.921 5.906 5.062C5.766 3.13 7.136 1.688 9 1.688c1.863 0 3.234 1.477 3.094 3.375Z"/><path fill="none" stroke="currentColor" stroke-miterlimit="10" stroke-width="2" d="M9 10.688c-3.059 0-6.163 1.687-6.737 4.872-.07.384.148.752.55.752h12.375c.402 0 .619-.368.55-.752-.575-3.185-3.68-4.873-6.738-4.873Z"/>
  </symbol>
  <symbol id="three-circles" viewBox="0 0 18 18">
    <path fill="none" stroke="currentColor" stroke-width="2" d="m14.528 14.615.383.924-.383-.924a2.384 2.384 0 1 1-1.825-4.406 2.384 2.384 0 0 1 1.825 4.406ZM8.999 7.412a2.385 2.385 0 1 1 .002-4.77 2.385 2.385 0 0 1-.002 4.77Zm-5.94 3.017a2.385 2.385 0 1 1 2.65 3.965 2.385 2.385 0 0 1-2.65-3.965Z"/>
  </symbol>
  <symbol id="lucide-building" viewBox="0 0 24 24">
    <g fill="none" stroke="currentColor" stroke-linecap="round" stroke-linejoin="round" stroke-width="2"><rect width="16" height="20" x="4" y="2" rx="2" ry="2"/><path d="M9 22v-4h6v4M8 6h.01M16 6h.01M12 6h.01M12 10h.01M12 14h.01M16 10h.01M16 14h.01M8 10h.01M8 14h.01"/></g>
  </symbol>
  <symbol id="lucide-building-2" viewBox="0 0 24 24"><path fill="none" stroke="currentColor" stroke-linecap="round" stroke-linejoin="round" stroke-width="2" d="M6 22V4a2 2 0 0 1 2-2h8a2 2 0 0 1 2 2v18Zm0-10H4a2 2 0 0 0-2 2v6a2 2 0 0 0 2 2h2M18 9h2a2 2 0 0 1 2 2v9a2 2 0 0 1-2 2h-2M10 6h4m-4 4h4m-4 4h4m-4 4h4"/></symbol>
</svg>
