<svg xmlns="http://www.w3.org/2000/svg">
  <symbol id="phone" viewBox="0 0 24 24">
    <path fill="none" stroke="currentColor" stroke-linecap="round" stroke-linejoin="round" stroke-width="2" d="M5 4h4l2 5l-2.5 1.5a11 11 0 0 0 5 5L15 13l5 2v4a2 2 0 0 1-2 2A16 16 0 0 1 3 6a2 2 0 0 1 2-2"/>
  </symbol>
  <symbol id="email" viewBox="0 0 24 24">
    <g fill="none" stroke="currentColor" stroke-linecap="round" stroke-linejoin="round" stroke-width="2"><path d="M3 7a2 2 0 0 1 2-2h14a2 2 0 0 1 2 2v10a2 2 0 0 1-2 2H5a2 2 0 0 1-2-2z"/><path d="m3 7l9 6l9-6"/></g>
  </symbol>
</svg>
